<svg width="576" height="616" viewBox="0 0 576 616" fill="none" xmlns="http://www.w3.org/2000/svg">
<g clip-path="url(#clip0_2502_1098)">
<path opacity="0.07" d="M572.445 191.045C566.534 141.458 536.699 91.5898 470.461 82.7785C386.022 71.3426 320.348 136.021 281.506 192.92C270.248 150.175 249.888 102.932 207.2 79.4977C141.525 43.6901 59.995 74.0609 29.8785 128.428C-5.492 192.357 40.0111 278.408 70.2214 337.368C121.575 436.812 166.026 539.666 203.259 645.201C207.669 657.762 237.035 660.105 244.353 648.294C343.897 489.504 596.087 389.111 572.445 191.045ZM520.186 281.97C501.422 351.523 427.491 409.64 369.229 460.07C319.128 503.47 270.248 546.589 231.593 596.27C207.535 528.873 178.625 463.305 145.09 400.078C115.349 345.992 81.9491 293.593 60.6517 236.601C37.7594 173.235 64.4984 47.7208 188.999 90.09C238.255 106.869 261.991 160.487 273.437 204.543C268.371 212.511 264.055 220.197 259.74 227.321C248.387 247.756 291.263 257.598 301.208 239.788C327.384 192.92 426.553 59.1568 501.234 133.584C539.513 171.36 532.008 238.476 520.186 281.876V281.97Z" fill="#1A1A1A"/>
<path opacity="0.1" d="M677.201 326.239C674.166 300.776 658.847 275.168 624.836 270.643C581.48 264.771 547.759 297.984 527.815 327.202C522.034 305.252 511.58 280.992 489.661 268.958C455.939 250.571 414.076 266.166 398.613 294.085C380.451 326.913 403.815 371.101 419.327 401.378C445.696 452.444 468.52 505.261 487.638 559.455C489.902 565.905 504.98 567.108 508.738 561.043C559.85 479.502 689.341 427.949 677.201 326.239ZM650.369 372.93C640.734 408.647 602.773 438.491 572.857 464.387C547.132 486.674 522.034 508.816 502.186 534.328C489.833 499.719 474.989 466.048 457.77 433.581C442.499 405.807 425.349 378.899 414.414 349.633C402.659 317.094 416.389 252.64 480.315 274.398C505.607 283.014 517.794 310.547 523.672 333.171C521.07 337.262 518.854 341.209 516.638 344.868C510.809 355.361 532.825 360.415 537.931 351.27C551.372 327.202 602.291 258.513 640.637 296.732C660.292 316.131 656.438 350.596 650.369 372.882V372.93Z" fill="#F2FAF5"/>
</g>
<defs>
<clipPath id="clip0_2502_1098">
<rect width="576" height="616" fill="white"/>
</clipPath>
</defs>
</svg>
