<svg width="576" height="616" viewBox="0 0 576 616" fill="none" xmlns="http://www.w3.org/2000/svg">
<path opacity="0.15" d="M-14.45 419.639C83.9955 549.938 260.608 447.141 330.388 342.088C367.543 286.398 385.918 215.711 361.358 151.39C327.359 62.6471 221.079 27.5615 135.942 10.8119C132.604 10.1784 130.07 16.8413 133.803 17.597C259.738 43.2831 399.943 119.156 357.784 268.411C329.409 368.124 230.123 457.871 126.115 470.353C72.5366 476.674 24.0771 453.713 -9.29291 412.489C-67.921 340.493 -57.7254 253.393 -10.8557 178.094C11.5979 142.309 44.6973 110.313 85.3329 96.9664C139.48 79.1926 185.9 119.997 211.159 163.52C257.402 243.462 190.889 343.677 111.261 368.845C50.6003 387.993 16.6908 337.276 34.5344 282.649C43.5338 255.029 71.1989 214.748 106.209 228.403C111.103 230.375 115.501 233.392 119.093 237.242C122.684 241.092 125.381 245.68 126.993 250.682C103.078 253.14 81.5777 268.481 63.1541 285.621C61.9092 286.747 60.9793 288.175 60.4552 289.765C59.9311 291.355 59.8309 293.053 60.1643 294.692C60.4978 296.331 61.2535 297.856 62.3575 299.116C63.4615 300.377 64.876 301.331 66.4624 301.884C92.2925 310.623 116.743 313.372 139.498 296.438C147.048 290.3 151.994 281.556 153.348 271.955C163.306 270.117 168.771 257.999 156.18 253.867L153.592 253.102C152.589 246.638 150.206 240.463 146.602 234.994C109.055 180.201 42.7504 208.665 18.1811 259.426C-9.60865 316.54 4.99111 376.838 73.4487 388.954C130.724 398.964 185.197 353.052 213.134 308.51C281.91 199.002 175.537 27.1427 48.5628 107.583C-2.66263 139.977 -40.8054 203.581 -53.4095 261.413C-66.0135 319.245 -50.6472 372.14 -14.45 419.639ZM96.381 286.709C105.692 278.774 116.849 273.281 128.836 270.731C125.577 284.142 110.73 287.784 96.381 286.709Z" fill="#1A1A1A"/>
<path opacity="0.1" d="M516.869 98.713C530.806 75.8679 525.79 45.77 508.152 25.3645C489.637 3.85945 454.395 4.78057 434.33 23.6301C429.073 28.2355 425.225 34.225 423.22 40.9188C421.216 47.6125 421.136 54.7424 422.99 61.4991C424.844 68.2559 428.557 74.3688 433.708 79.1441C438.859 83.9195 445.242 87.1659 452.132 88.5149C461.988 90.8849 480.865 88.7027 482.653 77.7365C484.907 63.7204 471.332 56.6189 457.123 52.9267C448.925 50.7989 446.904 61.7252 453.265 64.5795C457.262 65.832 460.808 68.2271 463.461 71.4669C463.692 71.6246 463.93 71.7701 464.176 71.9028C462.873 73.6758 461.321 75.2516 459.567 76.5816C453.976 76.6162 448.484 75.047 443.747 72.0609C430.58 64.7979 433.085 47.2409 438.285 37.279C444.879 24.5249 463.503 18.4431 479.099 21.1335C505.842 25.5973 514.799 55.0724 513.689 74.4037C511.412 110.365 467.967 126.341 430.955 112.484C386.829 95.8254 375.513 50.0841 386.992 14.3497C401.405 -32.3696 459.704 -39.0275 505.525 -20.155C555.444 0.0372397 582.176 44.871 575.041 90.489C574.808 91.886 577.916 93.4742 578.467 91.8096C595.811 36.3096 552.3 -16.0412 489.382 -32.774C426.464 -49.5068 378.931 -13.2957 372.912 38.6981C369.231 70.1089 387.386 103.964 421.174 119.805C454.962 135.646 498.122 128.936 516.869 98.713Z" fill="#5C5C5C"/>
<path opacity="0.1" d="M480.112 506.774C590.055 583.771 753.973 511.928 736.721 371.82C735.214 359.612 721.874 365.906 723.015 376.309C735.68 489.347 616.645 534.257 524.35 503.106C432.055 471.955 394.03 323.749 465.653 254.574C507.585 214.171 587.227 236.765 615.621 281.973C632.659 309.016 622.46 337.851 603.804 360.763C550.786 426.058 481.125 353.14 544.835 326.661C544.512 328.455 544.547 330.296 544.937 332.077C545.327 333.858 546.065 335.545 547.109 337.042C548.153 338.539 549.482 339.816 551.021 340.801C552.559 341.786 554.277 342.458 556.077 342.781C588.113 345.761 591.796 322.16 579.367 297.598C577.039 294.201 573.757 291.564 569.933 290.018C566.109 288.473 561.914 288.087 557.871 288.909C509.833 297.305 442.293 343.296 493.04 395.58C540.988 445.1 610.252 415.897 644.957 366.088C709.606 273.708 587.073 199.103 504.344 205.924C351.851 218.574 388.856 442.809 480.112 506.774Z" fill="#B0B0B0"/>
</svg>
