<svg width="1920" height="200" viewBox="0 0 1920 200" fill="none" xmlns="http://www.w3.org/2000/svg">
<path d="M1698.68 87.6447C1698.12 83.7966 1699.33 79.4497 1704.09 77.4647C1710.15 74.9188 1716.35 78.4732 1720.39 81.978C1720.37 78.5379 1720.93 74.5776 1723.64 71.9626C1727.81 67.958 1734.5 68.6151 1737.84 72.1037C1741.76 76.2066 1740.1 83.588 1739.04 88.6263C1737.22 97.1321 1735.98 105.756 1735.33 114.439C1735.26 115.471 1733.12 116.234 1732.34 115.492C1721.72 105.534 1700.91 103.016 1698.68 87.6447ZM1704.4 93.4413C1707.2 98.2988 1713.88 101.195 1719.24 103.825C1723.85 106.09 1728.36 108.358 1732.24 111.323C1732.67 105.773 1733.5 100.264 1734.73 94.8382C1735.85 90.1759 1737.29 85.5675 1737.72 80.8552C1738.15 75.6315 1733.63 66.7236 1725.21 72.3961C1721.88 74.6415 1721.19 79.1487 1721.22 82.6913C1721.76 83.1895 1722.24 83.6816 1722.7 84.1313C1723.96 85.4419 1720.97 87.0382 1719.87 85.8969C1716.97 82.8938 1706.89 74.8112 1702.82 81.9008C1700.73 85.5066 1702.64 90.4055 1704.4 93.4343L1704.4 93.4413Z" fill="#007931"/>
<path d="M1826 74.6353C1827.09 67.1593 1824.72 58.7143 1815.48 54.8578C1803.71 49.9118 1791.67 56.8172 1783.82 63.6261C1783.87 56.9427 1782.77 49.2489 1777.51 44.1685C1769.4 36.3885 1756.41 37.6651 1749.93 44.4426C1742.3 52.4136 1745.52 66.754 1747.58 76.5423C1751.12 93.067 1753.53 109.822 1754.79 126.689C1754.93 128.696 1759.09 130.178 1760.61 128.735C1781.24 109.39 1821.67 104.498 1826 74.6353ZM1814.88 85.8967C1809.44 95.3337 1796.46 100.96 1786.06 106.07C1777.11 110.47 1768.34 114.876 1760.8 120.637C1759.96 109.855 1758.34 99.1512 1755.96 88.6106C1753.78 79.5528 1751 70.5997 1750.15 61.4447C1749.31 51.2964 1758.1 33.9903 1774.46 45.0107C1780.93 49.373 1782.27 58.1294 1782.2 65.0119C1781.15 65.9798 1780.23 66.9358 1779.32 67.8095C1776.88 70.3557 1782.7 73.4569 1784.84 71.2398C1790.46 65.4054 1810.05 49.7028 1817.95 63.4761C1822.01 70.4814 1818.29 79.9988 1814.88 85.883L1814.88 85.8967Z" fill="#007931"/>
<g clip-path="url(#clip0_1475_25354)">
<path opacity="0.07" d="M975.368 104.714C1027.36 -54.7464 1137.34 -238.876 1304.57 -295.425C1346.66 -308.376 1391.3 -310.764 1434.53 -302.378C1477.77 -293.992 1518.29 -275.09 1552.49 -247.34C1666.06 -233.997 1800.55 -153.083 1836.77 -47.9489C1849.01 -13.3779 1852.43 23.6961 1846.74 59.9196C1841.04 96.1431 1826.4 130.373 1804.15 159.513C1792.76 258.058 1718.72 347.235 1638.9 408.305C1527.43 493.164 1355.5 563.748 1250.71 432.107C1059.01 439.097 896.806 346.238 975.368 104.714ZM1460.15 122.52C1463.09 111.142 1465.4 99.6091 1467.06 87.9752C1473.78 37.6222 1461.2 7.5804 1436.31 -9.4968C1421.39 -12.7967 1405.96 -13.0303 1390.96 -10.1835C1375.95 -7.33663 1361.68 -1.46872 1349.02 7.06376C1357.12 14.5943 1363.63 23.6698 1368.17 33.7555C1372.71 43.8411 1375.18 54.7329 1375.45 65.7889C1375.71 76.8449 1373.76 87.8415 1369.71 98.1307C1365.65 108.42 1359.58 117.793 1351.85 125.699C1363.94 139.005 1378.12 150.252 1393.82 158.998C1395.55 160.641 1397.44 160.382 1399.57 161.171C1420.55 149.569 1440.78 136.66 1460.15 122.52ZM1170.04 312.291C1158.91 297.294 1149.19 281.308 1140.98 264.536C1128.36 246.266 1120.1 225.339 1116.85 203.372C1113.93 193.466 1111.35 183.482 1109.12 173.418C1094.99 150.749 1085.59 125.455 1081.49 99.0593C1064.36 142.36 1058.53 189.308 1064.54 235.488C1075.08 284.558 1119.04 304.945 1170.04 312.291Z" fill="#007931"/>
</g>
<g clip-path="url(#clip1_1475_25354)">
<path opacity="0.2" d="M1316.15 483.088C1318.51 323.381 1198.09 215.63 1053.48 155.703C851.023 -29.9824 549.107 68.3216 434.892 288.546C380.484 320.564 336.588 367.755 308.577 424.342C295.971 449.595 286.078 476.116 279.065 503.457C270.895 528.393 267.198 554.578 268.145 580.802C264.013 732.833 364.357 862.429 504.247 932.393C581.571 1040.73 700.508 1097.41 856.335 1039.85C915.26 1017.68 966.51 978.924 1003.9 928.26C1175.66 841.469 1313.19 665.231 1316.15 483.088ZM943.988 711.283C910.206 756.566 862.686 789.704 808.525 805.749C770.611 795.27 735.916 775.483 707.591 748.184C757.518 733.756 803.744 708.722 843.115 674.792C882.487 640.861 914.075 598.833 935.725 551.576C959.428 569.854 978.278 593.676 990.619 620.95C979.587 653.185 963.875 683.622 943.988 711.283ZM860.762 501.391C840.718 548.132 810.465 589.792 772.224 623.311C752.304 637.93 729.494 648.126 705.318 653.217C681.143 658.308 656.159 658.177 632.038 652.832C599.388 601.525 575.175 545.312 560.322 486.335C587.161 455.199 622.097 432.107 661.256 419.618C731.731 435.938 799.103 463.552 860.762 501.391ZM909.753 414.895C918.734 421.335 927.218 428.44 935.135 436.15C918.017 422.57 896.473 417.552 885.258 432.017C862.112 417.142 838.17 403.542 813.542 391.278C836.642 390.018 859.804 392.106 882.307 397.478C891.751 403.087 901.195 408.696 909.753 414.895ZM610.494 752.907C596.688 758.596 583.278 765.203 570.356 772.686C552.397 755.042 536.73 735.205 523.726 713.645C548.699 734.127 578.626 747.669 610.494 752.907ZM622.299 815.786C631.153 811.654 643.843 806.34 659.78 800.141C670.405 810.768 680.734 820.215 691.359 829.661L655.648 833.794C644.154 828.52 633.014 822.505 622.299 815.786ZM1102.77 537.111C1097.3 508.936 1087.33 481.825 1073.25 456.814C1087.7 466.353 1101.06 477.44 1113.1 489.878C1110.96 505.905 1107.81 521.78 1103.65 537.406L1102.77 537.111ZM381.179 530.911C380.511 600.05 393.032 668.682 418.07 733.128C423.088 755.874 429.294 778.34 436.663 800.436C400.418 766.944 375.574 722.935 365.622 674.592C355.67 626.249 361.111 576.002 381.179 530.911ZM1000.95 344.045C974.415 310.023 940.509 282.467 901.785 263.454C840.977 233.153 775.546 213.199 708.181 204.412C804.022 180.357 904.871 185.601 997.702 219.468C1009.51 223.305 1019.54 227.734 1030.46 232.162C1075.97 276.972 1104.98 335.857 1112.8 399.249C1077.94 375.985 1040.38 357.051 1000.95 342.864V344.045ZM1221.11 527.074C1211.65 500.097 1197.01 475.229 1178.03 453.862C1178.18 402.017 1169.19 350.551 1151.46 301.831C1183.03 328.86 1206.32 364.264 1218.64 403.96C1230.97 443.655 1231.82 486.027 1221.11 526.188V527.074Z" fill="#333333"/>
</g>
<g clip-path="url(#clip2_1475_25354)">
<path d="M143.496 165.083C141.708 161.401 142.82 156.667 144.211 152.701C142 153.936 139.217 154.824 137.83 152.469C135.955 149.29 137.626 145.324 139.649 142.653C144.951 135.68 155.142 137.603 163.659 138.451C155.642 135.904 146.358 134.449 143.284 125.929C141.908 122.106 143.032 118.304 146.63 116.409C150.101 114.578 154.439 115.797 157.537 117.976C156.57 110.283 164.426 102.899 172.011 106.157C172.219 106.168 172.415 106.258 172.559 106.409C172.739 106.501 172.914 106.589 173.086 106.681C184.781 113.378 171.323 128.371 171.307 137.319C175.385 129.243 177.532 116.301 188.552 115.597C195.692 115.141 193.697 125.749 191.722 130.962C195.133 129.903 198.527 130.275 200.97 133.405C203.073 136.1 202.613 140.11 200.742 142.773C197.951 146.747 192.202 146.699 188.024 145.624C182.838 144.292 178.508 141.266 173.386 141.014C177.085 147.565 181.456 153.713 186.428 159.358C193.645 167.374 201.502 171.976 212.145 173.207C212.397 173.235 212.273 173.495 212.105 173.543C203.225 176.09 193.777 168.953 187.804 163.244C181.599 157.319 176.645 150.03 172.343 142.577C172.344 143.238 172.311 143.899 172.243 144.556L172.938 144.564C173.57 144.564 173.938 145.868 173.198 145.968C172.803 146.02 172.411 146.092 172.011 146.148C170.52 154.38 163.894 161.964 156.486 166.015C156.466 166.089 156.43 166.158 156.383 166.218C156.335 166.278 156.275 166.328 156.207 166.364C156.14 166.401 156.065 166.423 155.989 166.429C155.912 166.436 155.835 166.427 155.762 166.402C154.687 166.965 153.578 167.458 152.44 167.878C148.993 169.141 145.219 168.637 143.496 165.083ZM155.302 164.471C156.441 163.866 157.539 163.188 158.589 162.44C156.914 163.076 155.21 163.604 153.491 164.084C154.097 164.167 154.697 164.291 155.286 164.455L155.302 164.471ZM145.015 163.412C145.117 163.767 145.261 164.109 145.443 164.431C149.981 163.372 154.491 162.34 158.801 160.605C157.154 159.806 155.329 159.447 153.503 159.562C152.743 159.602 152.62 158.326 153.135 157.97C154.154 157.291 155.226 156.698 156.342 156.195C152.55 157.07 148.681 157.564 144.791 157.67C144.447 159.578 144.523 161.537 145.015 163.412ZM164.998 151.697C162.597 151.582 160.191 151.652 157.801 151.905C153.779 152.912 149.681 153.628 145.599 154.312C145.447 154.81 145.307 155.31 145.179 155.811C149.373 155.295 153.495 154.316 157.689 154.056C160.171 153.417 162.611 152.63 164.998 151.697ZM147.642 150.693L146.814 150.881C146.614 151.393 146.414 151.921 146.218 152.453C150.376 151.19 154.657 150.378 158.989 150.03C160.404 149.606 161.795 149.137 163.163 148.622C157.955 149.031 152.774 149.722 147.642 150.693ZM148.285 140.142C144.359 140.646 141.061 142.841 139.433 146.483C138.802 147.915 138.462 150.03 139.585 151.305C140.269 152.077 141.337 151.953 142.396 151.509C142.048 151.105 142.02 150.334 142.564 150.19C146.664 149.057 150.843 148.232 155.066 147.723C158.533 147.031 162.015 146.371 165.486 145.756C161.943 145.572 158.397 145.368 154.875 145.452C151.392 145.968 147.894 146.403 144.403 146.895C143.751 146.987 143.112 145.844 143.875 145.616C144.639 145.388 145.399 145.212 146.162 145.04C145.707 144.816 145.251 144.592 144.775 144.396C144.463 144.268 143.955 143.665 144.455 143.413C147.728 141.784 151.214 140.624 154.811 139.966C152.635 139.831 150.451 139.89 148.285 140.142ZM168.52 141.186C168.464 141.078 168.43 140.959 168.42 140.838C166.039 140.85 163.66 140.731 161.292 140.482C156.047 140.807 150.892 141.995 146.034 144C146.442 144.256 146.838 144.532 147.23 144.812C150.067 144.305 152.944 144.048 155.826 144.044C160.123 143.412 164.367 142.456 168.52 141.186ZM159.432 119.719C159.68 120.383 159.013 121.363 158.349 120.715C155.142 117.58 149.901 116.089 145.958 118.832C140.761 122.43 146.506 129.199 150.021 131.298C153.847 133.581 158.181 134.661 162.435 135.924C162.203 135.692 162.039 135.024 162.431 134.857C163.761 134.242 165.057 133.558 166.313 132.805C162.583 132.538 158.821 133.005 155.118 132.214C154.683 132.122 154.163 131.258 154.767 131.062L155.602 130.77L155.37 130.738C155.114 130.698 154.891 130.419 155.174 130.223C156.6 129.39 158.101 128.692 159.656 128.14C157.037 128.107 154.426 127.826 151.86 127.3C151.372 127.148 151.02 126.084 151.688 125.953L154.115 125.517C152.112 125.324 150.125 124.998 148.166 124.541C147.802 124.449 147.142 123.726 147.754 123.466C149.437 122.75 151.048 121.962 152.703 121.155C151.268 121.119 149.837 121.143 148.393 121.115C147.838 121.103 147.282 121.091 146.726 121.047C146.17 121.003 145.966 120.287 146.458 120.227C147.318 120.167 148.166 120.119 149.013 120.071C149.628 119.962 150.23 119.794 150.812 119.567C151.084 119.479 151.548 119.815 151.256 120.011C152.504 120.011 153.747 120.047 154.994 120.159C155.434 120.199 155.946 120.983 155.402 121.239C153.599 122.106 151.812 122.998 149.993 123.825C152.723 124.293 155.518 124.449 158.301 124.761C158.501 124.821 158.678 124.938 158.813 125.097C158.948 125.255 159.034 125.45 159.061 125.657C161.448 124.933 163.89 124.401 166.313 123.793C163.263 124.157 160.208 124.213 157.261 123.122C157.022 123.034 156.746 122.606 157.118 122.466C161.687 120.479 166.585 119.587 171.343 118.236C168.984 118.554 166.587 118.465 164.258 117.972C163.97 117.908 163.595 117.532 163.958 117.288C164.637 116.83 165.348 116.421 166.086 116.065C164.346 116.385 162.565 116.403 160.82 116.117C160.492 116.053 160.188 115.629 160.536 115.393C163.459 113.446 166.693 112.387 170.048 111.623C168.442 111.509 166.852 111.242 165.298 110.823C165.066 110.759 164.738 110.447 164.902 110.18C165.713 108.809 166.918 107.716 168.361 107.041C162.807 107.349 157.082 113.49 159.432 119.719ZM156.798 130.351C158.725 129.671 160.644 128.967 162.539 128.208L161.52 128.172C160.237 128.553 158.977 129.011 157.749 129.543C156.666 130.019 156.454 130.239 156.79 130.343L156.798 130.351ZM176.349 116.637C176.531 114.646 176.099 112.648 175.109 110.911C174.428 109.655 173.414 108.611 172.179 107.893C171.745 108.713 171.213 109.479 170.596 110.172C170.432 110.335 169.844 110.291 169.988 109.98C170.412 109.145 170.818 108.302 171.207 107.449C170.999 107.369 170.787 107.301 170.592 107.265C170.044 107.377 169.51 107.545 168.996 107.765C168.371 107.895 167.802 108.216 167.367 108.684C166.932 109.151 166.653 109.742 166.569 110.375C168.716 110.995 171.227 110.915 173.45 110.931C173.942 110.935 174.494 111.687 173.798 111.823C170.981 112.31 168.2 112.986 165.474 113.846C163.527 114.506 158.741 116.085 165.018 115.629C168.073 115.405 170.995 114.194 174.018 113.714C174.406 113.654 174.874 114.29 174.358 114.422C171.319 115.197 168.293 115.745 165.502 117.256C164.582 117.752 170.927 117.492 171.019 117.48C172.743 117.292 174.458 116.921 176.153 116.609C176.216 116.601 176.281 116.608 176.341 116.629L176.349 116.637ZM176.257 117.528C172.119 119.116 167.785 119.971 163.511 121.111C161.925 121.543 160.363 122.061 158.833 122.662L159.488 123.094C160.614 123.281 161.755 123.35 162.895 123.302C165.726 123.294 168.572 122.67 171.367 122.29C171.795 122.23 172.391 122.802 171.795 123.022C167.493 124.621 162.947 125.217 158.613 126.656C159.341 126.68 160.068 126.699 160.796 126.712C164.697 126.394 168.569 125.793 172.383 124.913C172.807 124.817 173.39 125.457 172.831 125.593C171.29 125.961 169.744 126.28 168.193 126.552C167.462 126.702 166.735 126.856 166.01 127.016C166.433 127.28 166.665 128.112 166.141 128.323C164.314 129.071 162.471 129.755 160.612 130.407C161.659 130.327 162.703 130.211 163.735 130.099C166.253 129.774 168.793 129.64 171.331 129.699C171.647 129.711 171.823 130.127 171.459 130.227C168.85 130.966 166.154 131.357 163.443 131.39C163.071 131.394 163.043 130.99 163.411 130.958C164.762 130.962 166.11 130.847 167.441 130.614C170.282 130.055 170.762 129.921 168.88 130.215C167.221 130.235 165.554 130.47 163.906 130.654C162.277 130.856 160.638 130.965 158.997 130.982L157.853 131.374C161.424 131.618 165.03 131.138 168.608 131.734C169.032 131.806 169.736 132.725 169.084 133.009C167.345 133.757 165.794 134.837 164.102 135.68C165.459 136.554 166.929 137.236 168.472 137.707C168.572 137.754 168.661 137.82 168.734 137.902C168.808 137.984 168.864 138.079 168.9 138.183C169.376 138.395 169.852 138.615 170.32 138.859C170.33 138.867 170.339 138.877 170.348 138.887L170.296 138.795C170.219 138.633 170.18 138.455 170.182 138.276C170.184 138.096 170.227 137.92 170.308 137.759C170.254 137.675 170.221 137.579 170.212 137.479C169.74 130.906 175.329 124.053 176.245 117.516L176.257 117.528ZM192.114 122.99C192.326 117.38 188.144 116.829 183.914 118.996C179.767 121.119 177.552 125.725 175.669 130.439C178.124 129.583 180.53 128.633 182.886 127.588C181.703 127.692 180.519 127.796 179.324 127.952C178.812 128.024 178.176 127.092 178.792 126.844C181.335 125.805 183.942 124.949 186.452 123.861C184.752 123.915 183.059 124.008 181.375 124.141C180.915 124.177 180.363 123.402 180.959 123.19C183.77 122.194 186.536 121.275 189.095 119.779C187.503 119.798 185.92 120.014 184.381 120.423C183.914 120.547 183.382 119.823 183.974 119.639C186.125 119.06 188.352 118.812 190.579 118.904C190.898 118.912 191.598 119.395 191.134 119.723C189.157 121.068 187.014 122.15 184.757 122.942C186.117 122.87 187.48 122.826 188.859 122.838C189.231 122.834 189.867 123.518 189.359 123.785C187.498 124.728 185.588 125.57 183.638 126.308C184.605 126.204 185.569 126.096 186.528 125.937C187.18 125.829 187.796 126.836 187.092 127.172C185.417 127.976 183.718 128.723 182.006 129.435C184.034 129.063 186.097 128.663 188.156 128.387C188.719 128.311 189.439 129.383 188.775 129.663L188.635 129.715C187.148 130.331 185.641 130.902 184.129 131.454C185.565 131.242 187.004 131.042 188.448 130.886C188.545 130.89 188.641 130.913 188.73 130.954C188.819 130.995 188.899 131.054 188.965 131.126C189.031 131.198 189.083 131.282 189.116 131.374C189.149 131.466 189.164 131.564 189.159 131.662L189.847 131.55C191.253 128.898 192.031 125.958 192.122 122.958L192.114 122.99ZM195.368 132.53C194.925 132.526 194.477 132.534 194.033 132.554C192.773 132.655 191.538 132.958 190.375 133.453C190.3 133.489 190.218 133.509 190.135 133.51C190.052 133.511 189.97 133.493 189.894 133.459C189.819 133.425 189.752 133.374 189.698 133.311C189.644 133.248 189.605 133.173 189.583 133.093C184.645 134.033 179.839 135.904 174.878 136.7C174.186 136.808 173.61 135.568 174.402 135.36C177.384 134.497 180.443 133.805 183.398 132.833C181.547 133.085 179.703 133.329 177.872 133.561C177.329 133.625 176.753 132.594 177.396 132.374C178.996 131.841 180.586 131.282 182.166 130.698C180.059 131.062 177.956 131.43 175.833 131.706C175.723 131.708 175.614 131.684 175.516 131.634C175.418 131.585 175.333 131.512 175.269 131.422C174.361 133.927 173.307 136.376 172.115 138.759L172.191 138.899C172.519 138.883 172.839 138.891 173.158 138.891C178.792 137.152 184.893 135.168 190.922 134.881C192.778 134.292 194.574 133.531 196.288 132.61C195.991 132.561 195.693 132.529 195.392 132.514L195.368 132.53ZM192.326 144.248C196.68 144.604 201.15 142.013 200.726 137.239C200.701 136.378 200.439 135.541 199.969 134.819C199.5 134.097 198.84 133.518 198.063 133.145C196.866 133.812 195.628 134.404 194.357 134.917C196.149 135.036 197.92 135.366 199.635 135.9C200.13 136.06 200.614 137.176 199.894 137.375C198.491 137.763 197.076 138.099 195.66 138.411C196.12 138.615 196.532 139.283 196.048 139.67C194.675 140.734 193.218 141.683 191.69 142.509C191.006 142.897 190.347 141.518 191.042 141.126C191.738 140.734 192.566 140.25 193.269 139.802C190.511 139.866 187.764 140.118 185.005 140.422C184.273 140.49 183.814 139.127 184.637 138.975C188.544 138.267 192.458 137.655 196.308 136.716C193.848 136.409 191.361 136.403 188.899 136.696C185.005 137.751 180.991 138.463 177.049 139.407C182.134 140.678 186.784 143.801 192.326 144.248ZM170.412 141.989C167.696 142.882 164.929 143.613 162.127 144.18C164.878 144.3 167.633 144.472 170.368 144.536C170.45 143.69 170.465 142.838 170.412 141.989ZM168.812 146.643C169.172 147.043 169.212 147.843 168.664 148.095C167.266 148.776 165.835 149.386 164.374 149.922C165.79 149.978 167.201 150.094 168.604 150.29C168.679 150.301 168.751 150.326 168.816 150.366C169.366 149.11 169.785 147.801 170.068 146.459L168.812 146.643ZM167.829 152.425C166.043 153.203 164.221 153.903 162.363 154.524C162.543 154.976 162.427 155.643 161.999 155.807C160.084 156.555 158.153 157.255 156.286 158.13C157.917 158.471 159.467 159.123 160.852 160.049C160.991 160.141 161.099 160.274 161.16 160.429C163.828 158.164 166.08 155.45 167.813 152.409L167.829 152.425ZM152.228 165.779C150.497 165.691 148.763 165.748 147.042 165.951C148.501 166.602 150.468 166.315 152.216 165.759L152.228 165.779Z" fill="#80CF9F"/>
</g>
<defs>
<clipPath id="clip0_1475_25354">
<rect width="1920" height="200" fill="white"/>
</clipPath>
<clipPath id="clip1_1475_25354">
<path d="M64 0H1856V184C1856 192.837 1848.84 200 1840 200H80C71.1635 200 64 192.837 64 184V0Z" fill="white"/>
</clipPath>
<clipPath id="clip2_1475_25354">
<path d="M191.414 107.677C186.996 100.024 177.21 97.402 169.558 101.82L137.613 120.264C129.96 124.682 127.338 134.467 131.756 142.12L167.323 203.723L226.981 169.28L191.414 107.677Z" fill="white"/>
</clipPath>
</defs>
</svg>
