<svg width="1920" height="784" viewBox="0 0 1920 784" fill="none" xmlns="http://www.w3.org/2000/svg">
<path d="M1713.68 215.645C1713.12 211.797 1714.33 207.45 1719.09 205.465C1725.15 202.919 1731.35 206.473 1735.39 209.978C1735.37 206.538 1735.93 202.578 1738.64 199.963C1742.81 195.958 1749.5 196.615 1752.84 200.104C1756.76 204.207 1755.1 211.588 1754.04 216.626C1752.22 225.132 1750.98 233.756 1750.33 242.439C1750.26 243.471 1748.12 244.234 1747.34 243.492C1736.72 233.534 1715.91 231.016 1713.68 215.645ZM1719.4 221.441C1722.2 226.299 1728.88 229.195 1734.24 231.825C1738.85 234.09 1743.36 236.358 1747.24 239.323C1747.67 233.773 1748.5 228.264 1749.73 222.838C1750.85 218.176 1752.29 213.567 1752.72 208.855C1753.15 203.632 1748.63 194.724 1740.21 200.396C1736.88 202.642 1736.19 207.149 1736.22 210.691C1736.76 211.19 1737.24 211.682 1737.7 212.131C1738.96 213.442 1735.97 215.038 1734.87 213.897C1731.97 210.894 1721.89 202.811 1717.82 209.901C1715.73 213.507 1717.65 218.405 1719.4 221.434L1719.4 221.441Z" fill="#007931"/>
<path d="M1841.01 202.635C1842.09 195.159 1839.73 186.714 1830.48 182.858C1818.71 177.912 1806.67 184.817 1798.82 191.626C1798.87 184.943 1797.77 177.249 1792.51 172.169C1784.41 164.389 1771.42 165.665 1764.93 172.443C1757.31 180.414 1760.52 194.754 1762.59 204.542C1766.12 221.067 1768.53 237.822 1769.79 254.689C1769.93 256.696 1774.09 258.178 1775.61 256.735C1796.24 237.39 1836.67 232.498 1841.01 202.635ZM1829.88 213.897C1824.44 223.334 1811.47 228.96 1801.06 234.07C1792.11 238.47 1783.34 242.876 1775.8 248.637C1774.96 237.855 1773.34 227.151 1770.97 216.611C1768.78 207.553 1766 198.6 1765.15 189.445C1764.32 179.296 1773.1 161.99 1789.46 173.011C1795.93 177.373 1797.27 186.129 1797.2 193.012C1796.15 193.98 1795.23 194.936 1794.33 195.81C1791.88 198.356 1797.7 201.457 1799.84 199.24C1805.46 193.405 1825.05 177.703 1832.95 191.476C1837.01 198.481 1833.3 207.999 1829.89 213.883L1829.88 213.897Z" fill="#007931"/>
<g clip-path="url(#clip0_709_71488)">
<path opacity="0.5" d="M974.368 104.714C1026.36 -54.7464 1136.34 -238.876 1303.56 -295.425C1345.66 -308.376 1390.29 -310.764 1433.53 -302.378C1476.77 -293.992 1517.28 -275.09 1551.49 -247.34C1665.06 -233.997 1799.55 -153.083 1835.77 -47.9489C1848.01 -13.3779 1851.43 23.6961 1845.74 59.9196C1840.04 96.1431 1825.4 130.373 1803.15 159.513C1791.76 258.058 1717.72 347.235 1637.9 408.305C1526.43 493.164 1354.5 563.748 1249.71 432.107C1058.01 439.097 895.806 346.238 974.368 104.714ZM1459.15 122.52C1462.09 111.142 1464.4 99.6091 1466.06 87.9752C1472.78 37.6222 1460.2 7.5804 1435.3 -9.4968C1420.39 -12.7967 1404.96 -13.0303 1389.96 -10.1835C1374.95 -7.33663 1360.68 -1.46872 1348.02 7.06376C1356.12 14.5943 1362.63 23.6698 1367.17 33.7555C1371.71 43.8411 1374.18 54.7329 1374.45 65.7889C1374.71 76.8449 1372.76 87.8415 1368.71 98.1307C1364.65 108.42 1358.58 117.793 1350.85 125.699C1362.94 139.005 1377.12 150.252 1392.82 158.998C1394.55 160.641 1396.44 160.382 1398.57 161.171C1419.55 149.569 1439.78 136.66 1459.15 122.52ZM1169.04 312.291C1157.91 297.294 1148.19 281.308 1139.98 264.536C1127.36 246.266 1119.1 225.339 1115.85 203.372C1112.92 193.466 1110.35 183.482 1108.12 173.418C1093.99 150.749 1084.59 125.455 1080.49 99.0593C1063.36 142.36 1057.53 189.308 1063.54 235.488C1074.08 284.558 1118.04 304.945 1169.04 312.291Z" fill="white"/>
</g>
<g clip-path="url(#clip1_709_71488)">
<path opacity="0.1" d="M1315.15 483.088C1317.51 323.381 1197.09 215.63 1052.48 155.703C850.023 -29.9824 548.107 68.3216 433.892 288.546C379.484 320.564 335.588 367.755 307.577 424.342C294.971 449.595 285.078 476.116 278.065 503.457C269.895 528.393 266.198 554.578 267.145 580.802C263.013 732.833 363.357 862.429 503.247 932.393C580.571 1040.73 699.508 1097.41 855.335 1039.85C914.26 1017.68 965.51 978.924 1002.9 928.26C1174.66 841.469 1312.19 665.231 1315.15 483.088ZM942.988 711.283C909.206 756.566 861.686 789.704 807.525 805.749C769.611 795.27 734.916 775.483 706.591 748.184C756.518 733.756 802.744 708.722 842.115 674.792C881.487 640.861 913.075 598.833 934.725 551.576C958.428 569.854 977.278 593.676 989.619 620.95C978.587 653.185 962.875 683.622 942.988 711.283ZM859.762 501.391C839.718 548.132 809.465 589.792 771.224 623.311C751.304 637.93 728.494 648.126 704.318 653.217C680.143 658.308 655.159 658.177 631.038 652.832C598.388 601.525 574.175 545.312 559.322 486.335C586.161 455.199 621.097 432.107 660.256 419.618C730.731 435.938 798.103 463.552 859.762 501.391ZM908.753 414.895C917.734 421.335 926.218 428.44 934.135 436.15C917.017 422.57 895.473 417.552 884.258 432.017C861.112 417.142 837.17 403.542 812.542 391.278C835.642 390.018 858.804 392.106 881.307 397.478C890.751 403.087 900.195 408.696 908.753 414.895ZM609.494 752.907C595.688 758.596 582.278 765.203 569.356 772.686C551.397 755.042 535.73 735.205 522.726 713.645C547.699 734.127 577.626 747.669 609.494 752.907ZM621.299 815.786C630.153 811.654 642.843 806.34 658.78 800.141C669.405 810.768 679.734 820.215 690.359 829.661L654.648 833.794C643.154 828.52 632.014 822.505 621.299 815.786ZM1101.77 537.111C1096.3 508.936 1086.33 481.825 1072.25 456.814C1086.7 466.353 1100.06 477.44 1112.1 489.878C1109.96 505.905 1106.81 521.78 1102.65 537.406L1101.77 537.111ZM380.179 530.911C379.511 600.05 392.032 668.682 417.07 733.128C422.088 755.874 428.294 778.34 435.663 800.436C399.418 766.944 374.574 722.935 364.622 674.592C354.67 626.249 360.111 576.002 380.179 530.911ZM999.948 344.045C973.415 310.023 939.509 282.467 900.785 263.454C839.977 233.153 774.546 213.199 707.181 204.412C803.022 180.357 903.871 185.601 996.702 219.468C1008.51 223.305 1018.54 227.734 1029.46 232.162C1074.97 276.972 1103.98 335.857 1111.8 399.249C1076.94 375.985 1039.38 357.051 999.948 342.864V344.045ZM1220.11 527.074C1210.65 500.097 1196.01 475.229 1177.03 453.862C1177.18 402.017 1168.19 350.551 1150.46 301.831C1182.03 328.86 1205.32 364.264 1217.64 403.96C1229.97 443.655 1230.82 486.027 1220.11 526.188V527.074Z" fill="#80CF9F"/>
</g>
<g clip-path="url(#clip2_709_71488)">
<path d="M114.741 624.262C112.953 620.58 114.065 615.846 115.456 611.88C113.245 613.115 110.462 614.003 109.075 611.648C107.2 608.469 108.871 604.503 110.894 601.832C116.196 594.859 126.387 596.783 134.904 597.63C126.887 595.083 117.603 593.628 114.529 585.108C113.153 581.285 114.277 577.483 117.875 575.588C121.346 573.757 125.684 574.976 128.782 577.155C127.815 569.463 135.671 562.078 143.256 565.337C143.464 565.347 143.66 565.437 143.804 565.588C143.984 565.68 144.159 565.768 144.331 565.86C156.026 572.557 142.568 587.551 142.552 596.499C146.63 588.422 148.777 575.48 159.796 574.776C166.937 574.321 164.942 584.928 162.967 590.141C166.378 589.082 169.772 589.454 172.215 592.584C174.318 595.279 173.858 599.289 171.987 601.952C169.196 605.926 163.447 605.878 159.269 604.803C154.083 603.472 149.753 600.445 144.631 600.193C148.33 606.744 152.701 612.892 157.673 618.537C164.89 626.553 172.747 631.155 183.39 632.387C183.642 632.415 183.518 632.675 183.35 632.722C174.47 635.269 165.022 628.133 159.049 622.423C152.844 616.498 147.89 609.209 143.588 601.756C143.589 602.417 143.556 603.078 143.488 603.735L144.183 603.743C144.815 603.743 145.183 605.047 144.443 605.147C144.048 605.199 143.656 605.271 143.256 605.327C141.765 613.559 135.139 621.144 127.731 625.194C127.711 625.268 127.675 625.337 127.628 625.397C127.58 625.457 127.52 625.507 127.452 625.543C127.385 625.58 127.31 625.602 127.234 625.608C127.157 625.615 127.08 625.606 127.007 625.582C125.932 626.144 124.823 626.637 123.685 627.057C120.238 628.32 116.464 627.817 114.741 624.262ZM126.547 623.651C127.686 623.046 128.784 622.367 129.834 621.619C128.159 622.255 126.455 622.783 124.736 623.263C125.342 623.346 125.942 623.471 126.531 623.635L126.547 623.651ZM116.26 622.591C116.362 622.946 116.506 623.288 116.688 623.611C121.226 622.551 125.736 621.519 130.046 619.784C128.399 618.986 126.574 618.626 124.748 618.741C123.988 618.781 123.865 617.505 124.38 617.149C125.399 616.471 126.471 615.877 127.587 615.374C123.795 616.249 119.926 616.744 116.036 616.85C115.692 618.757 115.768 620.716 116.26 622.591ZM136.243 610.876C133.842 610.762 131.436 610.831 129.046 611.084C125.024 612.092 120.926 612.807 116.844 613.491C116.692 613.99 116.552 614.489 116.424 614.99C120.618 614.475 124.74 613.495 128.934 613.235C131.416 612.597 133.856 611.809 136.243 610.876ZM118.887 609.873L118.059 610.061C117.859 610.572 117.659 611.1 117.463 611.632C121.621 610.369 125.902 609.557 130.234 609.209C131.649 608.785 133.04 608.316 134.408 607.802C129.2 608.21 124.019 608.902 118.887 609.873ZM119.53 599.321C115.604 599.825 112.306 602.02 110.678 605.663C110.047 607.094 109.707 609.209 110.83 610.484C111.514 611.256 112.582 611.132 113.641 610.688C113.293 610.284 113.265 609.513 113.809 609.369C117.909 608.236 122.088 607.411 126.311 606.902C129.778 606.21 133.26 605.551 136.731 604.935C133.188 604.751 129.642 604.547 126.12 604.631C122.637 605.147 119.139 605.583 115.648 606.074C114.996 606.166 114.357 605.023 115.12 604.795C115.884 604.567 116.644 604.391 117.407 604.219C116.952 603.995 116.496 603.771 116.02 603.575C115.708 603.448 115.2 602.844 115.7 602.592C118.973 600.963 122.459 599.803 126.056 599.145C123.88 599.01 121.696 599.069 119.53 599.321ZM139.765 600.365C139.709 600.257 139.675 600.139 139.665 600.017C137.284 600.029 134.905 599.911 132.537 599.661C127.292 599.986 122.137 601.175 117.279 603.18C117.687 603.436 118.083 603.711 118.475 603.991C121.312 603.484 124.189 603.227 127.071 603.224C131.368 602.591 135.612 601.635 139.765 600.365ZM130.677 578.898C130.925 579.562 130.258 580.542 129.594 579.894C126.387 576.759 121.146 575.268 117.203 578.011C112.006 581.609 117.751 588.378 121.266 590.477C125.092 592.76 129.426 593.84 133.68 595.103C133.448 594.871 133.284 594.204 133.676 594.036C135.006 593.422 136.302 592.737 137.558 591.985C133.828 591.717 130.066 592.185 126.363 591.393C125.928 591.301 125.408 590.437 126.012 590.241L126.847 589.95L126.615 589.918C126.359 589.878 126.136 589.598 126.419 589.402C127.845 588.569 129.346 587.871 130.901 587.319C128.282 587.287 125.671 587.005 123.105 586.479C122.617 586.327 122.265 585.264 122.933 585.132L125.36 584.696C123.357 584.503 121.37 584.177 119.41 583.72C119.047 583.628 118.387 582.905 118.999 582.645C120.682 581.929 122.293 581.141 123.948 580.334C122.513 580.298 121.082 580.322 119.638 580.294C119.083 580.282 118.527 580.27 117.971 580.226C117.415 580.182 117.211 579.466 117.703 579.406C118.563 579.346 119.41 579.298 120.258 579.25C120.873 579.141 121.475 578.973 122.057 578.747C122.329 578.659 122.793 578.994 122.501 579.19C123.749 579.19 124.992 579.226 126.239 579.338C126.679 579.378 127.191 580.162 126.647 580.418C124.844 581.285 123.057 582.177 121.238 583.005C123.968 583.472 126.763 583.628 129.546 583.94C129.746 584 129.923 584.117 130.058 584.276C130.193 584.435 130.279 584.629 130.306 584.836C132.693 584.112 135.135 583.58 137.558 582.973C134.508 583.337 131.453 583.392 128.506 582.301C128.267 582.213 127.991 581.785 128.363 581.645C132.932 579.658 137.83 578.767 142.588 577.415C140.229 577.734 137.832 577.644 135.503 577.151C135.215 577.087 134.84 576.711 135.203 576.468C135.882 576.009 136.593 575.6 137.331 575.244C135.591 575.564 133.81 575.582 132.065 575.296C131.737 575.232 131.433 574.808 131.781 574.572C134.704 572.625 137.938 571.566 141.293 570.802C139.687 570.689 138.097 570.421 136.543 570.002C136.311 569.938 135.983 569.627 136.147 569.359C136.958 567.989 138.163 566.895 139.605 566.22C134.052 566.528 128.327 572.669 130.677 578.898ZM128.043 589.53C129.97 588.85 131.889 588.146 133.784 587.387L132.765 587.351C131.482 587.732 130.222 588.19 128.994 588.722C127.911 589.198 127.699 589.418 128.035 589.522L128.043 589.53ZM147.594 575.816C147.776 573.826 147.344 571.827 146.354 570.09C145.673 568.835 144.659 567.79 143.424 567.072C142.99 567.892 142.458 568.658 141.841 569.351C141.677 569.515 141.089 569.471 141.233 569.159C141.657 568.325 142.063 567.481 142.452 566.628C142.244 566.548 142.032 566.48 141.837 566.444C141.289 566.557 140.755 566.724 140.241 566.944C139.616 567.074 139.047 567.395 138.612 567.863C138.177 568.33 137.898 568.922 137.814 569.555C139.961 570.174 142.472 570.094 144.695 570.11C145.187 570.114 145.739 570.866 145.043 571.002C142.226 571.489 139.445 572.165 136.719 573.025C134.772 573.685 129.986 575.264 136.263 574.808C139.318 574.584 142.24 573.373 145.263 572.893C145.651 572.833 146.119 573.469 145.603 573.601C142.564 574.377 139.538 574.924 136.747 576.436C135.827 576.931 142.172 576.671 142.264 576.659C143.988 576.472 145.703 576.1 147.398 575.788C147.461 575.78 147.526 575.787 147.586 575.808L147.594 575.816ZM147.502 576.707C143.364 578.295 139.03 579.15 134.756 580.29C133.17 580.723 131.608 581.24 130.078 581.841L130.733 582.273C131.859 582.46 133 582.529 134.14 582.481C136.971 582.473 139.817 581.849 142.612 581.469C143.04 581.409 143.636 581.981 143.04 582.201C138.738 583.8 134.192 584.396 129.858 585.835C130.586 585.859 131.313 585.878 132.041 585.891C135.942 585.573 139.814 584.972 143.628 584.092C144.052 583.996 144.635 584.636 144.076 584.772C142.535 585.14 140.989 585.46 139.438 585.731C138.707 585.881 137.98 586.035 137.255 586.195C137.678 586.459 137.91 587.291 137.386 587.503C135.559 588.25 133.716 588.934 131.857 589.586C132.904 589.506 133.948 589.39 134.98 589.278C137.498 588.953 140.038 588.82 142.576 588.878C142.892 588.89 143.068 589.306 142.704 589.406C140.095 590.145 137.399 590.537 134.688 590.569C134.316 590.573 134.288 590.169 134.656 590.137C136.007 590.141 137.355 590.026 138.686 589.794C141.527 589.234 142.007 589.101 140.125 589.394C138.466 589.414 136.799 589.65 135.151 589.834C133.522 590.035 131.883 590.144 130.242 590.161L129.098 590.553C132.669 590.797 136.275 590.317 139.853 590.913C140.277 590.985 140.981 591.905 140.329 592.189C138.59 592.936 137.039 594.016 135.347 594.859C136.704 595.733 138.174 596.415 139.717 596.886C139.817 596.933 139.906 597 139.979 597.081C140.053 597.163 140.109 597.258 140.145 597.362C140.621 597.574 141.097 597.794 141.565 598.038C141.575 598.047 141.584 598.056 141.593 598.066L141.541 597.974C141.464 597.812 141.425 597.634 141.427 597.455C141.429 597.275 141.472 597.099 141.553 596.938C141.499 596.854 141.466 596.758 141.457 596.659C140.985 590.086 146.574 583.233 147.49 576.695L147.502 576.707ZM163.359 582.169C163.571 576.56 159.389 576.008 155.159 578.175C151.012 580.298 148.797 584.904 146.914 589.618C149.369 588.762 151.775 587.812 154.131 586.767C152.948 586.871 151.764 586.975 150.569 587.131C150.057 587.203 149.421 586.271 150.037 586.023C152.58 584.984 155.187 584.128 157.697 583.041C155.997 583.094 154.304 583.187 152.62 583.321C152.16 583.356 151.608 582.581 152.204 582.369C155.015 581.373 157.781 580.454 160.34 578.958C158.748 578.977 157.165 579.193 155.626 579.602C155.159 579.726 154.627 579.002 155.219 578.819C157.37 578.239 159.597 577.991 161.824 578.083C162.143 578.091 162.843 578.575 162.379 578.902C160.402 580.248 158.259 581.329 156.002 582.121C157.362 582.049 158.725 582.005 160.104 582.017C160.476 582.013 161.112 582.697 160.604 582.965C158.743 583.907 156.833 584.749 154.883 585.488C155.85 585.384 156.814 585.276 157.773 585.116C158.425 585.008 159.041 586.015 158.337 586.351C156.662 587.155 154.963 587.902 153.251 588.614C155.279 588.242 157.342 587.843 159.401 587.567C159.964 587.491 160.684 588.562 160.02 588.842L159.88 588.894C158.393 589.51 156.886 590.082 155.374 590.633C156.81 590.421 158.249 590.221 159.693 590.066C159.79 590.069 159.886 590.092 159.975 590.133C160.064 590.174 160.144 590.233 160.21 590.305C160.276 590.377 160.328 590.462 160.361 590.554C160.394 590.646 160.409 590.743 160.404 590.841L161.092 590.729C162.498 588.077 163.276 585.137 163.367 582.137L163.359 582.169ZM166.613 591.709C166.17 591.705 165.722 591.713 165.278 591.733C164.018 591.834 162.783 592.137 161.62 592.632C161.545 592.669 161.463 592.688 161.38 592.689C161.297 592.69 161.215 592.672 161.139 592.638C161.064 592.604 160.997 592.553 160.943 592.49C160.889 592.427 160.85 592.353 160.828 592.273C155.89 593.212 151.084 595.083 146.123 595.879C145.431 595.987 144.855 594.747 145.647 594.54C148.629 593.676 151.688 592.984 154.643 592.013C152.792 592.265 150.948 592.508 149.117 592.74C148.574 592.804 147.998 591.773 148.641 591.553C150.241 591.02 151.831 590.461 153.411 589.878C151.304 590.241 149.201 590.609 147.078 590.885C146.968 590.888 146.859 590.863 146.761 590.813C146.663 590.764 146.578 590.691 146.514 590.601C145.606 593.106 144.552 595.556 143.36 597.938L143.436 598.078C143.764 598.062 144.084 598.07 144.403 598.07C150.037 596.331 156.138 594.348 162.167 594.06C164.023 593.471 165.819 592.711 167.533 591.789C167.236 591.74 166.938 591.708 166.637 591.693L166.613 591.709ZM163.571 603.428C167.925 603.783 172.395 601.193 171.971 596.419C171.946 595.558 171.684 594.72 171.214 593.998C170.745 593.276 170.085 592.697 169.308 592.324C168.111 592.992 166.873 593.583 165.602 594.096C167.394 594.215 169.165 594.545 170.88 595.079C171.375 595.239 171.859 596.355 171.139 596.555C169.736 596.942 168.321 597.278 166.905 597.59C167.365 597.794 167.777 598.462 167.293 598.85C165.92 599.913 164.463 600.862 162.935 601.688C162.251 602.076 161.592 600.697 162.287 600.305C162.983 599.913 163.811 599.429 164.514 598.982C161.756 599.046 159.009 599.297 156.25 599.601C155.518 599.669 155.059 598.306 155.882 598.154C159.788 597.446 163.703 596.834 167.553 595.895C165.093 595.589 162.606 595.582 160.144 595.875C156.25 596.93 152.236 597.642 148.294 598.586C153.379 599.857 158.029 602.98 163.571 603.428ZM141.657 601.169C138.941 602.061 136.174 602.792 133.372 603.36C136.123 603.48 138.878 603.651 141.613 603.715C141.695 602.869 141.71 602.017 141.657 601.169ZM140.057 605.822C140.417 606.222 140.457 607.022 139.909 607.274C138.511 607.956 137.08 608.566 135.619 609.101C137.035 609.157 138.446 609.273 139.849 609.469C139.924 609.48 139.996 609.506 140.061 609.545C140.611 608.289 141.03 606.98 141.313 605.639L140.057 605.822ZM139.074 611.604C137.288 612.382 135.466 613.082 133.608 613.703C133.788 614.155 133.672 614.822 133.244 614.986C131.329 615.734 129.398 616.434 127.531 617.309C129.162 617.651 130.712 618.302 132.097 619.229C132.236 619.32 132.344 619.453 132.405 619.608C135.073 617.343 137.325 614.629 139.058 611.588L139.074 611.604ZM123.473 624.958C121.742 624.87 120.008 624.927 118.287 625.13C119.746 625.782 121.713 625.494 123.461 624.938L123.473 624.958Z" fill="#80CF9F"/>
</g>
<defs>
<clipPath id="clip0_709_71488">
<rect width="1920" height="784" fill="white"/>
</clipPath>
<clipPath id="clip1_709_71488">
<rect width="1920" height="784" fill="white"/>
</clipPath>
<clipPath id="clip2_709_71488">
<rect width="68.8867" height="87.1333" fill="white" transform="matrix(-0.866025 0.5 0.5 0.866025 154.658 553)"/>
</clipPath>
</defs>
</svg>
