<svg width="539" height="264" viewBox="0 0 539 264" fill="none" xmlns="http://www.w3.org/2000/svg">
<path opacity="0.4" d="M-72.9777 107.393C-74.5229 2.79939 4.28314 -67.7672 98.9276 -107.014C231.43 -228.62 429.024 -164.24 503.774 -20.0139C539.383 0.954987 568.111 31.8604 586.443 68.9193C594.694 85.4581 601.169 102.826 605.759 120.732C611.105 137.063 613.525 154.212 612.905 171.386C615.609 270.952 549.938 355.825 458.384 401.645C407.778 472.598 329.937 509.718 227.953 472.018C189.389 457.5 155.847 432.118 131.377 398.939C18.9627 342.099 -71.0461 226.679 -72.9777 107.393ZM170.587 256.839C192.697 286.495 223.797 308.197 259.244 318.705C284.057 311.843 306.764 298.884 325.302 281.006C292.626 271.556 262.372 255.162 236.605 232.94C210.838 210.719 190.164 183.195 175.995 152.246C160.483 164.216 148.146 179.818 140.069 197.679C147.289 218.79 157.572 238.723 170.587 256.839ZM225.056 119.379C238.174 149.991 257.974 177.273 283.002 199.226C296.038 208.799 310.967 215.477 326.789 218.811C342.611 222.145 358.962 222.059 374.749 218.559C396.117 184.957 411.963 148.143 421.685 109.519C404.119 89.1281 381.255 74.0047 355.627 65.8259C309.503 76.5136 265.41 94.5981 225.056 119.379ZM192.993 62.7326C187.115 66.9499 181.563 71.603 176.382 76.6526C187.584 67.7593 201.685 64.4726 209.024 73.9459C224.173 64.2042 239.841 55.2976 255.96 47.266C240.842 46.4405 225.683 47.808 210.956 51.3259C204.775 54.9993 198.594 58.6726 192.993 62.7326ZM388.849 284.099C397.884 287.824 406.66 292.152 415.118 297.052C426.871 285.497 437.125 272.506 445.636 258.386C429.291 271.8 409.705 280.668 388.849 284.099ZM381.123 325.279C375.328 322.572 367.023 319.092 356.592 315.032C349.639 321.992 342.879 328.179 335.925 334.365L359.297 337.072C366.819 333.618 374.11 329.678 381.123 325.279ZM66.6713 142.772C70.2522 124.321 76.7739 106.565 85.9865 90.1859C76.5335 96.4326 67.7899 103.693 59.9109 111.839C61.3079 122.336 63.3724 132.732 66.0918 142.966L66.6713 142.772ZM538.928 138.712C539.365 183.992 531.17 228.939 514.784 271.146C511.5 286.042 507.438 300.755 502.615 315.225C526.337 293.291 542.596 264.47 549.11 232.81C555.623 201.15 552.062 168.243 538.928 138.712ZM133.309 16.3327C150.674 -5.94864 172.864 -23.9951 198.208 -36.4472C238.005 -56.2916 280.827 -69.3594 324.915 -75.1138C262.191 -90.8676 196.188 -87.433 135.433 -65.2538C127.707 -62.7405 121.14 -59.8405 113.994 -56.9405C84.2121 -27.5943 65.2203 10.97 60.1041 52.4859C82.9186 37.25 107.501 24.85 133.309 15.5593V16.3327ZM-10.7828 136.199C-4.58984 118.532 4.98944 102.245 17.4175 88.2525C17.3163 54.2986 23.201 20.5932 34.8011 -11.3139C14.1407 6.38794 -1.10077 29.574 -9.16595 55.571C-17.2311 81.5679 -17.7916 109.317 -10.7828 135.619V136.199Z" fill="#009E3F"/>
</svg>
