<svg width="249" height="58" viewBox="0 0 249 58" fill="none" xmlns="http://www.w3.org/2000/svg">
<path d="M39.652 39.8345C39.8541 34.1487 50.5229 29.2333 51.7308 27.1131C52.9387 24.9929 50.5229 24.0085 49.315 24.0842C48.1072 24.1599 36.9343 29.6119 38.4442 27.7189C39.1796 24.8351 49.2395 15.1489 48.7111 12.5744C48.5408 11.7451 47.999 10.7415 46.1872 10.6658C44.3754 10.5901 34.2506 22.7492 33.0087 21.6611C31.5528 20.0925 37.2995 7.34775 37.8402 6.51657C38.3876 4.88484 38.9799 3.47882 35.9602 2.79732C34.2471 2.41068 28.3453 19.9785 24.5536 19.8437C22.8487 19.7832 24.3271 7.42524 23.9496 4.69923C23.5722 1.97322 22.3539 0.915071 20.93 1.06455C19.506 1.21403 18.0612 2.579 17.9103 5.30501C17.7593 8.03102 16.8534 28.4761 12.4748 27.7189C10.0736 27.3036 7.56783 19.8437 4.01969 19.8437C3.17418 19.8437 1.00785 19.4651 1 23.4784C0.996379 25.409 4.40501 30.3534 7.03938 34.9882C9.71664 39.6988 12.9645 44.507 12.9645 44.507C12.4668 42.7367 12.639 38.8746 12.639 38.8746C12.7267 36.4068 15.1925 33.701 18.5142 33.7767C21.8359 33.8524 23.7987 37.5628 23.9496 36.8056C24.1006 36.0484 26.9693 33.7767 29.3851 33.7767C31.8008 33.7767 34.896 36.6541 35.4245 40.4403C35.9529 44.2264 30.5175 48.694 30.593 47.1039C30.6685 45.5137 29.5548 42.2576 26.9693 42.2576C24.931 42.2576 23.3457 44.0749 23.3457 44.0749C23.3457 44.0749 21.3338 42.0574 20.0576 42.012C18.7814 41.9667 16.6381 42.8506 16.7024 46.4981C16.7666 50.1456 23.9496 54.979 23.9496 54.979L28.0455 52.0039C29.7275 51.3412 33.2917 49.7322 37.2182 51.873C40.4141 53.6154 41.5481 54.8619 45.5455 55.0039C49.543 55.146 51.0474 51.3974 54.0455 51.5039" stroke="#005E26" stroke-width="2"/>
<path d="M75.5095 33.468C73.7575 33.468 72.1255 33.126 70.6135 32.442C69.1135 31.758 67.8055 30.816 66.6895 29.616C65.5735 28.404 64.6975 27.012 64.0615 25.44C63.4375 23.856 63.1255 22.164 63.1255 20.364C63.1255 18.468 63.4615 16.728 64.1335 15.144C64.8175 13.56 65.7475 12.186 66.9235 11.022C68.0995 9.858 69.4315 8.958 70.9195 8.322C72.4195 7.686 73.9795 7.368 75.5995 7.368C77.4115 7.368 79.1695 7.794 80.8735 8.646C82.5895 9.486 84.1015 10.788 85.4095 12.552L81.4855 14.658C80.6815 13.674 79.7575 12.942 78.7135 12.462C77.6815 11.97 76.6255 11.724 75.5455 11.724C74.4895 11.724 73.4755 11.94 72.5035 12.372C71.5435 12.804 70.6855 13.416 69.9295 14.208C69.1855 14.988 68.5975 15.912 68.1655 16.98C67.7335 18.036 67.5175 19.194 67.5175 20.454C67.5175 21.642 67.7275 22.764 68.1475 23.82C68.5675 24.864 69.1435 25.782 69.8755 26.574C70.6195 27.354 71.4775 27.966 72.4495 28.41C73.4215 28.854 74.4655 29.076 75.5815 29.076C76.3255 29.076 77.0515 28.962 77.7595 28.734C78.4795 28.494 79.1515 28.152 79.7755 27.708C80.4115 27.264 80.9755 26.724 81.4675 26.088C81.9715 25.452 82.3915 24.732 82.7275 23.928H78.1375V20.094H87.8935C87.9415 21.93 87.6535 23.652 87.0295 25.26C86.4055 26.868 85.5235 28.29 84.3835 29.526C83.2435 30.762 81.9175 31.728 80.4055 32.424C78.8935 33.12 77.2615 33.468 75.5095 33.468ZM90.6987 33V6H95.0907V33H90.6987ZM107.458 33.468C105.802 33.468 104.29 33.042 102.922 32.19C101.566 31.338 100.48 30.198 99.6636 28.77C98.8596 27.33 98.4576 25.74 98.4576 24C98.4576 22.68 98.6916 21.45 99.1596 20.31C99.6276 19.158 100.27 18.15 101.086 17.286C101.914 16.41 102.874 15.726 103.966 15.234C105.058 14.742 106.222 14.496 107.458 14.496C109.114 14.496 110.62 14.922 111.976 15.774C113.344 16.626 114.43 17.772 115.234 19.212C116.05 20.652 116.458 22.248 116.458 24C116.458 25.308 116.224 26.532 115.756 27.672C115.288 28.812 114.64 29.82 113.812 30.696C112.996 31.56 112.042 32.238 110.95 32.73C109.87 33.222 108.706 33.468 107.458 33.468ZM107.458 29.076C108.334 29.076 109.12 28.842 109.816 28.374C110.512 27.906 111.058 27.288 111.454 26.52C111.862 25.752 112.066 24.912 112.066 24C112.066 23.064 111.856 22.212 111.436 21.444C111.028 20.664 110.47 20.046 109.762 19.59C109.066 19.122 108.298 18.888 107.458 18.888C106.594 18.888 105.814 19.122 105.118 19.59C104.422 20.058 103.87 20.682 103.462 21.462C103.054 22.242 102.85 23.088 102.85 24C102.85 24.948 103.06 25.806 103.48 26.574C103.9 27.342 104.458 27.954 105.154 28.41C105.862 28.854 106.63 29.076 107.458 29.076ZM128.696 14.496C130.448 14.496 132.044 14.922 133.484 15.774C134.924 16.626 136.07 17.772 136.922 19.212C137.774 20.64 138.2 22.224 138.2 23.964C138.2 25.272 137.954 26.502 137.462 27.654C136.97 28.806 136.286 29.82 135.41 30.696C134.546 31.56 133.538 32.238 132.386 32.73C131.246 33.222 130.016 33.468 128.696 33.468C127.568 33.468 126.566 33.216 125.69 32.712C124.826 32.196 124.1 31.53 123.512 30.714V33H119.12V6H123.512V17.25C124.1 16.434 124.826 15.774 125.69 15.27C126.566 14.754 127.568 14.496 128.696 14.496ZM128.642 29.22C129.578 29.22 130.424 28.986 131.18 28.518C131.948 28.038 132.56 27.402 133.016 26.61C133.472 25.818 133.7 24.936 133.7 23.964C133.7 23.004 133.472 22.128 133.016 21.336C132.56 20.532 131.948 19.896 131.18 19.428C130.412 18.96 129.566 18.726 128.642 18.726C127.73 18.726 126.914 18.966 126.194 19.446C125.474 19.914 124.91 20.55 124.502 21.354C124.094 22.146 123.89 23.016 123.89 23.964C123.89 24.936 124.094 25.824 124.502 26.628C124.91 27.42 125.474 28.05 126.194 28.518C126.914 28.986 127.73 29.22 128.642 29.22ZM154.88 15H159.272V33H154.862L154.682 30.768C154.178 31.572 153.518 32.226 152.702 32.73C151.898 33.222 150.95 33.468 149.858 33.468C148.526 33.468 147.278 33.216 146.114 32.712C144.95 32.208 143.924 31.512 143.036 30.624C142.148 29.736 141.458 28.71 140.966 27.546C140.474 26.382 140.228 25.134 140.228 23.802C140.228 22.518 140.462 21.312 140.93 20.184C141.398 19.056 142.058 18.066 142.91 17.214C143.762 16.362 144.746 15.696 145.862 15.216C146.978 14.736 148.178 14.496 149.462 14.496C150.662 14.496 151.73 14.76 152.666 15.288C153.614 15.816 154.418 16.488 155.078 17.304L154.88 15ZM149.984 29.238C150.944 29.238 151.778 28.992 152.486 28.5C153.194 28.008 153.728 27.354 154.088 26.538C154.46 25.71 154.61 24.798 154.538 23.802C154.454 22.866 154.178 22.02 153.71 21.264C153.242 20.496 152.642 19.884 151.91 19.428C151.178 18.972 150.356 18.744 149.444 18.744C148.496 18.744 147.644 18.99 146.888 19.482C146.144 19.974 145.568 20.634 145.16 21.462C144.752 22.278 144.59 23.19 144.674 24.198C144.77 25.122 145.07 25.968 145.574 26.736C146.078 27.492 146.714 28.098 147.482 28.554C148.262 29.01 149.096 29.238 149.984 29.238ZM163.718 33V6H168.11V33H163.718Z" fill="#009E3F"/>
<path d="M183.861 33.468C182.109 33.468 180.477 33.126 178.965 32.442C177.465 31.758 176.157 30.816 175.041 29.616C173.925 28.404 173.049 27.012 172.413 25.44C171.789 23.856 171.477 22.164 171.477 20.364C171.477 18.468 171.813 16.728 172.485 15.144C173.169 13.56 174.099 12.186 175.275 11.022C176.451 9.858 177.783 8.958 179.271 8.322C180.771 7.686 182.331 7.368 183.951 7.368C185.763 7.368 187.521 7.794 189.225 8.646C190.941 9.486 192.453 10.788 193.761 12.552L189.837 14.658C189.033 13.674 188.109 12.942 187.065 12.462C186.033 11.97 184.977 11.724 183.897 11.724C182.841 11.724 181.827 11.94 180.855 12.372C179.895 12.804 179.037 13.416 178.281 14.208C177.537 14.988 176.949 15.912 176.517 16.98C176.085 18.036 175.869 19.194 175.869 20.454C175.869 21.642 176.079 22.764 176.499 23.82C176.919 24.864 177.495 25.782 178.227 26.574C178.971 27.354 179.829 27.966 180.801 28.41C181.773 28.854 182.817 29.076 183.933 29.076C184.677 29.076 185.403 28.962 186.111 28.734C186.831 28.494 187.503 28.152 188.127 27.708C188.763 27.264 189.327 26.724 189.819 26.088C190.323 25.452 190.743 24.732 191.079 23.928H186.489V20.094H196.245C196.293 21.93 196.005 23.652 195.381 25.26C194.757 26.868 193.875 28.29 192.735 29.526C191.595 30.762 190.269 31.728 188.757 32.424C187.245 33.12 185.613 33.468 183.861 33.468ZM199.206 15H203.598V33H199.206V15ZM201.42 12.318C200.784 12.318 200.244 12.108 199.8 11.688C199.356 11.256 199.134 10.716 199.134 10.068C199.134 9.432 199.356 8.898 199.8 8.466C200.244 8.034 200.784 7.818 201.42 7.818C202.056 7.818 202.59 8.034 203.022 8.466C203.466 8.898 203.688 9.432 203.688 10.068C203.688 10.716 203.466 11.256 203.022 11.688C202.59 12.108 202.056 12.318 201.42 12.318ZM220.754 33H215.084L208.532 14.982H213.212L217.928 27.942L222.626 14.982H227.306L220.754 33ZM236.903 33.468C235.247 33.468 233.735 33.042 232.367 32.19C231.011 31.338 229.925 30.192 229.109 28.752C228.305 27.312 227.903 25.722 227.903 23.982C227.903 22.674 228.137 21.45 228.605 20.31C229.073 19.158 229.715 18.15 230.531 17.286C231.359 16.41 232.319 15.726 233.411 15.234C234.503 14.742 235.667 14.496 236.903 14.496C238.307 14.496 239.591 14.796 240.755 15.396C241.931 15.984 242.927 16.794 243.743 17.826C244.559 18.858 245.153 20.034 245.525 21.354C245.897 22.674 245.981 24.054 245.777 25.494H232.619C232.787 26.166 233.063 26.772 233.447 27.312C233.831 27.84 234.317 28.266 234.905 28.59C235.493 28.902 236.159 29.064 236.903 29.076C237.671 29.088 238.367 28.908 238.991 28.536C239.627 28.152 240.155 27.636 240.575 26.988L245.057 28.032C244.325 29.628 243.233 30.936 241.781 31.956C240.329 32.964 238.703 33.468 236.903 33.468ZM232.475 22.2H241.331C241.199 21.48 240.917 20.832 240.485 20.256C240.065 19.668 239.543 19.2 238.919 18.852C238.295 18.504 237.623 18.33 236.903 18.33C236.183 18.33 235.517 18.504 234.905 18.852C234.293 19.188 233.771 19.65 233.339 20.238C232.919 20.814 232.631 21.468 232.475 22.2Z" fill="#005E26"/>
<path d="M64.5504 54H63.3346V45.9727H64.5504V54ZM63.2321 43.7974C63.2321 43.519 63.3004 43.3164 63.4371 43.1895C63.5739 43.0576 63.7448 42.9917 63.9498 42.9917C64.1451 42.9917 64.3136 43.0576 64.4552 43.1895C64.5968 43.3213 64.6676 43.5239 64.6676 43.7974C64.6676 44.0708 64.5968 44.2759 64.4552 44.4126C64.3136 44.5444 64.1451 44.6104 63.9498 44.6104C63.7448 44.6104 63.5739 44.5444 63.4371 44.4126C63.3004 44.2759 63.2321 44.0708 63.2321 43.7974ZM72.7717 54V48.8071C72.7717 48.1528 72.6228 47.6646 72.3249 47.3423C72.0271 47.02 71.5608 46.8589 70.926 46.8589C70.0862 46.8589 69.4709 47.0859 69.0803 47.54C68.6897 47.9941 68.4944 48.7437 68.4944 49.7886V54H67.2785V45.9727H68.2673L68.4651 47.0713H68.5237C68.7727 46.6758 69.1218 46.3706 69.571 46.1558C70.0202 45.936 70.5207 45.8262 71.0725 45.8262C72.0393 45.8262 72.7668 46.0605 73.2551 46.5293C73.7434 46.9932 73.9875 47.7378 73.9875 48.7632V54H72.7717ZM79.2352 53.1431C79.45 53.1431 79.6575 53.1284 79.8577 53.0991C80.0579 53.0649 80.2166 53.0308 80.3338 52.9966V53.9268C80.202 53.9902 80.0067 54.0415 79.7479 54.0806C79.494 54.1245 79.2645 54.1465 79.0594 54.1465C77.5067 54.1465 76.7303 53.3286 76.7303 51.6929V46.9175H75.5804V46.3315L76.7303 45.8262L77.243 44.1123H77.9461V45.9727H80.2752V46.9175H77.9461V51.6416C77.9461 52.125 78.0609 52.4961 78.2904 52.7549C78.5198 53.0137 78.8348 53.1431 79.2352 53.1431ZM85.4863 54.1465C84.2997 54.1465 83.3622 53.7852 82.6738 53.0625C81.9902 52.3398 81.6484 51.3364 81.6484 50.0522C81.6484 48.7583 81.9657 47.7305 82.6005 46.9688C83.2402 46.207 84.0971 45.8262 85.1713 45.8262C86.1772 45.8262 86.9731 46.1582 87.559 46.8223C88.1449 47.4814 88.4379 48.353 88.4379 49.437V50.2061H82.9081C82.9325 51.1484 83.1694 51.8638 83.6186 52.3521C84.0727 52.8403 84.7099 53.0845 85.5302 53.0845C86.3945 53.0845 87.249 52.9038 88.0937 52.5425V53.6265C87.664 53.812 87.2563 53.9438 86.8705 54.022C86.4897 54.105 86.0282 54.1465 85.4863 54.1465ZM85.1567 46.8442C84.5121 46.8442 83.997 47.0542 83.6113 47.4741C83.2304 47.894 83.0058 48.4751 82.9374 49.2173H87.1342C87.1342 48.4507 86.9633 47.8647 86.6215 47.4595C86.2797 47.0493 85.7914 46.8442 85.1567 46.8442ZM94.3301 45.8262C94.6865 45.8262 95.0064 45.8555 95.2896 45.9141L95.1211 47.042C94.7891 46.9688 94.4961 46.9321 94.2422 46.9321C93.5928 46.9321 93.0362 47.1958 92.5723 47.7231C92.1133 48.2505 91.8838 48.9072 91.8838 49.6934V54H90.668V45.9727H91.6714L91.8106 47.4595H91.8692C92.167 46.937 92.5259 46.5342 92.9458 46.251C93.3657 45.9678 93.8272 45.8262 94.3301 45.8262ZM102.434 54V48.8071C102.434 48.1528 102.285 47.6646 101.987 47.3423C101.69 47.02 101.223 46.8589 100.589 46.8589C99.7487 46.8589 99.1334 47.0859 98.7428 47.54C98.3522 47.9941 98.1569 48.7437 98.1569 49.7886V54H96.941V45.9727H97.9298L98.1276 47.0713H98.1862C98.4352 46.6758 98.7843 46.3706 99.2335 46.1558C99.6827 45.936 100.183 45.8262 100.735 45.8262C101.702 45.8262 102.429 46.0605 102.918 46.5293C103.406 46.9932 103.65 47.7378 103.65 48.7632V54H102.434ZM111.241 54L111 52.8574H110.941C110.541 53.3604 110.14 53.7021 109.74 53.8828C109.344 54.0586 108.849 54.1465 108.253 54.1465C107.457 54.1465 106.832 53.9414 106.378 53.5312C105.929 53.1211 105.704 52.5376 105.704 51.7808C105.704 50.1597 107.001 49.3101 109.593 49.2319L110.956 49.188V48.6899C110.956 48.0601 110.819 47.5962 110.546 47.2983C110.277 46.9956 109.845 46.8442 109.249 46.8442C108.58 46.8442 107.823 47.0493 106.979 47.4595L106.605 46.5293C107.001 46.3145 107.433 46.146 107.902 46.0239C108.375 45.9019 108.849 45.8408 109.322 45.8408C110.28 45.8408 110.988 46.0532 111.447 46.478C111.91 46.9028 112.142 47.584 112.142 48.5215V54H111.241ZM108.495 53.1431C109.252 53.1431 109.845 52.9355 110.275 52.5205C110.709 52.1055 110.926 51.5244 110.926 50.7773V50.0522L109.711 50.1035C108.744 50.1377 108.046 50.2891 107.616 50.5576C107.191 50.8213 106.979 51.2339 106.979 51.7954C106.979 52.2349 107.111 52.5693 107.374 52.7988C107.643 53.0283 108.016 53.1431 108.495 53.1431ZM117.397 53.1431C117.612 53.1431 117.82 53.1284 118.02 53.0991C118.22 53.0649 118.379 53.0308 118.496 52.9966V53.9268C118.364 53.9902 118.169 54.0415 117.91 54.0806C117.656 54.1245 117.427 54.1465 117.222 54.1465C115.669 54.1465 114.892 53.3286 114.892 51.6929V46.9175H113.743V46.3315L114.892 45.8262L115.405 44.1123H116.108V45.9727H118.437V46.9175H116.108V51.6416C116.108 52.125 116.223 52.4961 116.452 52.7549C116.682 53.0137 116.997 53.1431 117.397 53.1431ZM121.473 54H120.257V45.9727H121.473V54ZM120.155 43.7974C120.155 43.519 120.223 43.3164 120.36 43.1895C120.497 43.0576 120.667 42.9917 120.872 42.9917C121.068 42.9917 121.236 43.0576 121.378 43.1895C121.519 43.3213 121.59 43.5239 121.59 43.7974C121.59 44.0708 121.519 44.2759 121.378 44.4126C121.236 44.5444 121.068 44.6104 120.872 44.6104C120.667 44.6104 120.497 44.5444 120.36 44.4126C120.223 44.2759 120.155 44.0708 120.155 43.7974ZM131.13 49.979C131.13 51.2876 130.8 52.3105 130.141 53.0479C129.482 53.7803 128.571 54.1465 127.409 54.1465C126.691 54.1465 126.054 53.978 125.498 53.6411C124.941 53.3042 124.511 52.8208 124.209 52.1909C123.906 51.561 123.754 50.8237 123.754 49.979C123.754 48.6704 124.082 47.6523 124.736 46.9248C125.39 46.1924 126.298 45.8262 127.46 45.8262C128.584 45.8262 129.475 46.1997 130.134 46.9468C130.798 47.6938 131.13 48.7046 131.13 49.979ZM125.014 49.979C125.014 51.0044 125.219 51.7856 125.629 52.3228C126.04 52.8599 126.643 53.1284 127.438 53.1284C128.234 53.1284 128.837 52.8623 129.248 52.3301C129.663 51.793 129.87 51.0093 129.87 49.979C129.87 48.9585 129.663 48.1846 129.248 47.6572C128.837 47.125 128.23 46.8589 127.424 46.8589C126.628 46.8589 126.027 47.1201 125.622 47.6426C125.217 48.165 125.014 48.9438 125.014 49.979ZM138.912 54V48.8071C138.912 48.1528 138.763 47.6646 138.465 47.3423C138.167 47.02 137.701 46.8589 137.066 46.8589C136.226 46.8589 135.611 47.0859 135.22 47.54C134.83 47.9941 134.634 48.7437 134.634 49.7886V54H133.419V45.9727H134.407L134.605 47.0713H134.664C134.913 46.6758 135.262 46.3706 135.711 46.1558C136.16 45.936 136.661 45.8262 137.213 45.8262C138.179 45.8262 138.907 46.0605 139.395 46.5293C139.883 46.9932 140.128 47.7378 140.128 48.7632V54H138.912ZM147.719 54L147.477 52.8574H147.419C147.018 53.3604 146.618 53.7021 146.218 53.8828C145.822 54.0586 145.326 54.1465 144.731 54.1465C143.935 54.1465 143.31 53.9414 142.856 53.5312C142.406 53.1211 142.182 52.5376 142.182 51.7808C142.182 50.1597 143.478 49.3101 146.071 49.2319L147.433 49.188V48.6899C147.433 48.0601 147.297 47.5962 147.023 47.2983C146.755 46.9956 146.322 46.8442 145.727 46.8442C145.058 46.8442 144.301 47.0493 143.456 47.4595L143.083 46.5293C143.478 46.3145 143.91 46.146 144.379 46.0239C144.853 45.9019 145.326 45.8408 145.8 45.8408C146.757 45.8408 147.465 46.0532 147.924 46.478C148.388 46.9028 148.62 47.584 148.62 48.5215V54H147.719ZM144.972 53.1431C145.729 53.1431 146.322 52.9355 146.752 52.5205C147.187 52.1055 147.404 51.5244 147.404 50.7773V50.0522L146.188 50.1035C145.221 50.1377 144.523 50.2891 144.093 50.5576C143.669 50.8213 143.456 51.2339 143.456 51.7954C143.456 52.2349 143.588 52.5693 143.852 52.7988C144.12 53.0283 144.494 53.1431 144.972 53.1431ZM152.498 54H151.282V42.6035H152.498V54ZM166.201 49.979C166.201 51.2876 165.872 52.3105 165.212 53.0479C164.553 53.7803 163.643 54.1465 162.48 54.1465C161.763 54.1465 161.126 53.978 160.569 53.6411C160.012 53.3042 159.583 52.8208 159.28 52.1909C158.977 51.561 158.826 50.8237 158.826 49.979C158.826 48.6704 159.153 47.6523 159.807 46.9248C160.461 46.1924 161.37 45.8262 162.532 45.8262C163.655 45.8262 164.546 46.1997 165.205 46.9468C165.869 47.6938 166.201 48.7046 166.201 49.979ZM160.085 49.979C160.085 51.0044 160.291 51.7856 160.701 52.3228C161.111 52.8599 161.714 53.1284 162.51 53.1284C163.306 53.1284 163.909 52.8623 164.319 52.3301C164.734 51.793 164.941 51.0093 164.941 49.979C164.941 48.9585 164.734 48.1846 164.319 47.6572C163.909 47.125 163.301 46.8589 162.495 46.8589C161.699 46.8589 161.099 47.1201 160.693 47.6426C160.288 48.165 160.085 48.9438 160.085 49.979ZM172.152 45.8262C172.508 45.8262 172.828 45.8555 173.111 45.9141L172.943 47.042C172.611 46.9688 172.318 46.9321 172.064 46.9321C171.415 46.9321 170.858 47.1958 170.394 47.7231C169.935 48.2505 169.706 48.9072 169.706 49.6934V54H168.49V45.9727H169.493L169.632 47.4595H169.691C169.989 46.937 170.348 46.5342 170.768 46.251C171.188 45.9678 171.649 45.8262 172.152 45.8262ZM181.333 45.9727V46.7417L179.846 46.9175C179.983 47.0884 180.105 47.313 180.212 47.5913C180.32 47.8647 180.373 48.1748 180.373 48.5215C180.373 49.3076 180.105 49.9351 179.568 50.4038C179.03 50.8726 178.293 51.1069 177.356 51.1069C177.116 51.1069 176.892 51.0874 176.682 51.0483C176.164 51.3218 175.905 51.666 175.905 52.0811C175.905 52.3008 175.996 52.4644 176.176 52.5718C176.357 52.6743 176.667 52.7256 177.107 52.7256H178.528C179.397 52.7256 180.063 52.9087 180.527 53.2749C180.996 53.6411 181.23 54.1733 181.23 54.8716C181.23 55.7603 180.874 56.4365 180.161 56.9004C179.448 57.3691 178.408 57.6035 177.041 57.6035C175.991 57.6035 175.18 57.4082 174.609 57.0176C174.043 56.627 173.759 56.0752 173.759 55.3623C173.759 54.874 173.916 54.4517 174.228 54.0952C174.541 53.7388 174.98 53.4971 175.547 53.3701C175.342 53.2773 175.168 53.1333 175.027 52.938C174.89 52.7427 174.822 52.5156 174.822 52.2568C174.822 51.9639 174.9 51.7075 175.056 51.4878C175.212 51.2681 175.459 51.0557 175.796 50.8506C175.381 50.6797 175.041 50.3892 174.778 49.979C174.519 49.5688 174.389 49.1001 174.389 48.5728C174.389 47.6938 174.653 47.0176 175.18 46.5439C175.708 46.0654 176.455 45.8262 177.422 45.8262C177.842 45.8262 178.22 45.875 178.557 45.9727H181.333ZM174.931 55.3477C174.931 55.7822 175.114 56.1118 175.481 56.3364C175.847 56.561 176.372 56.6733 177.055 56.6733C178.076 56.6733 178.83 56.5195 179.319 56.2119C179.812 55.9092 180.058 55.4966 180.058 54.9741C180.058 54.5396 179.924 54.2368 179.655 54.0659C179.387 53.8999 178.882 53.8169 178.139 53.8169H176.682C176.13 53.8169 175.7 53.9487 175.393 54.2124C175.085 54.4761 174.931 54.8545 174.931 55.3477ZM175.591 48.5435C175.591 49.105 175.749 49.5298 176.067 49.8179C176.384 50.106 176.826 50.25 177.392 50.25C178.579 50.25 179.172 49.6738 179.172 48.5215C179.172 47.3154 178.572 46.7124 177.37 46.7124C176.799 46.7124 176.36 46.8662 176.052 47.1738C175.744 47.4814 175.591 47.938 175.591 48.5435ZM188.067 54L187.826 52.8574H187.767C187.367 53.3604 186.966 53.7021 186.566 53.8828C186.17 54.0586 185.675 54.1465 185.079 54.1465C184.283 54.1465 183.658 53.9414 183.204 53.5312C182.755 53.1211 182.53 52.5376 182.53 51.7808C182.53 50.1597 183.826 49.3101 186.419 49.2319L187.782 49.188V48.6899C187.782 48.0601 187.645 47.5962 187.371 47.2983C187.103 46.9956 186.671 46.8442 186.075 46.8442C185.406 46.8442 184.649 47.0493 183.805 47.4595L183.431 46.5293C183.826 46.3145 184.259 46.146 184.727 46.0239C185.201 45.9019 185.675 45.8408 186.148 45.8408C187.105 45.8408 187.813 46.0532 188.272 46.478C188.736 46.9028 188.968 47.584 188.968 48.5215V54H188.067ZM185.321 53.1431C186.077 53.1431 186.671 52.9355 187.1 52.5205C187.535 52.1055 187.752 51.5244 187.752 50.7773V50.0522L186.536 50.1035C185.57 50.1377 184.871 50.2891 184.442 50.5576C184.017 50.8213 183.805 51.2339 183.805 51.7954C183.805 52.2349 183.936 52.5693 184.2 52.7988C184.469 53.0283 184.842 53.1431 185.321 53.1431ZM197.123 54V48.8071C197.123 48.1528 196.975 47.6646 196.677 47.3423C196.379 47.02 195.913 46.8589 195.278 46.8589C194.438 46.8589 193.823 47.0859 193.432 47.54C193.041 47.9941 192.846 48.7437 192.846 49.7886V54H191.63V45.9727H192.619L192.817 47.0713H192.875C193.124 46.6758 193.474 46.3706 193.923 46.1558C194.372 45.936 194.872 45.8262 195.424 45.8262C196.391 45.8262 197.119 46.0605 197.607 46.5293C198.095 46.9932 198.339 47.7378 198.339 48.7632V54H197.123ZM202.21 54H200.994V45.9727H202.21V54ZM200.892 43.7974C200.892 43.519 200.96 43.3164 201.097 43.1895C201.233 43.0576 201.404 42.9917 201.609 42.9917C201.805 42.9917 201.973 43.0576 202.115 43.1895C202.256 43.3213 202.327 43.5239 202.327 43.7974C202.327 44.0708 202.256 44.2759 202.115 44.4126C201.973 44.5444 201.805 44.6104 201.609 44.6104C201.404 44.6104 201.233 44.5444 201.097 44.4126C200.96 44.2759 200.892 44.0708 200.892 43.7974ZM210.072 54H204.25V53.1724L208.63 46.9175H204.521V45.9727H209.963V46.9175L205.641 53.0552H210.072V54ZM217.041 54L216.8 52.8574H216.741C216.341 53.3604 215.94 53.7021 215.54 53.8828C215.144 54.0586 214.649 54.1465 214.053 54.1465C213.257 54.1465 212.632 53.9414 212.178 53.5312C211.729 53.1211 211.504 52.5376 211.504 51.7808C211.504 50.1597 212.801 49.3101 215.393 49.2319L216.756 49.188V48.6899C216.756 48.0601 216.619 47.5962 216.345 47.2983C216.077 46.9956 215.645 46.8442 215.049 46.8442C214.38 46.8442 213.623 47.0493 212.779 47.4595L212.405 46.5293C212.801 46.3145 213.233 46.146 213.701 46.0239C214.175 45.9019 214.649 45.8408 215.122 45.8408C216.079 45.8408 216.787 46.0532 217.246 46.478C217.71 46.9028 217.942 47.584 217.942 48.5215V54H217.041ZM214.295 53.1431C215.051 53.1431 215.645 52.9355 216.074 52.5205C216.509 52.1055 216.726 51.5244 216.726 50.7773V50.0522L215.51 50.1035C214.544 50.1377 213.845 50.2891 213.416 50.5576C212.991 50.8213 212.779 51.2339 212.779 51.7954C212.779 52.2349 212.91 52.5693 213.174 52.7988C213.443 53.0283 213.816 53.1431 214.295 53.1431ZM223.197 53.1431C223.412 53.1431 223.619 53.1284 223.82 53.0991C224.02 53.0649 224.179 53.0308 224.296 52.9966V53.9268C224.164 53.9902 223.969 54.0415 223.71 54.0806C223.456 54.1245 223.226 54.1465 223.021 54.1465C221.469 54.1465 220.692 53.3286 220.692 51.6929V46.9175H219.542V46.3315L220.692 45.8262L221.205 44.1123H221.908V45.9727H224.237V46.9175H221.908V51.6416C221.908 52.125 222.023 52.4961 222.252 52.7549C222.482 53.0137 222.797 53.1431 223.197 53.1431ZM227.273 54H226.057V45.9727H227.273V54ZM225.955 43.7974C225.955 43.519 226.023 43.3164 226.16 43.1895C226.296 43.0576 226.467 42.9917 226.672 42.9917C226.868 42.9917 227.036 43.0576 227.178 43.1895C227.319 43.3213 227.39 43.5239 227.39 43.7974C227.39 44.0708 227.319 44.2759 227.178 44.4126C227.036 44.5444 226.868 44.6104 226.672 44.6104C226.467 44.6104 226.296 44.5444 226.16 44.4126C226.023 44.2759 225.955 44.0708 225.955 43.7974ZM236.93 49.979C236.93 51.2876 236.6 52.3105 235.941 53.0479C235.282 53.7803 234.371 54.1465 233.209 54.1465C232.491 54.1465 231.854 53.978 231.297 53.6411C230.741 53.3042 230.311 52.8208 230.008 52.1909C229.706 51.561 229.554 50.8237 229.554 49.979C229.554 48.6704 229.881 47.6523 230.536 46.9248C231.19 46.1924 232.098 45.8262 233.26 45.8262C234.383 45.8262 235.274 46.1997 235.934 46.9468C236.598 47.6938 236.93 48.7046 236.93 49.979ZM230.814 49.979C230.814 51.0044 231.019 51.7856 231.429 52.3228C231.839 52.8599 232.442 53.1284 233.238 53.1284C234.034 53.1284 234.637 52.8623 235.047 52.3301C235.462 51.793 235.67 51.0093 235.67 49.979C235.67 48.9585 235.462 48.1846 235.047 47.6572C234.637 47.125 234.029 46.8589 233.224 46.8589C232.428 46.8589 231.827 47.1201 231.422 47.6426C231.017 48.165 230.814 48.9438 230.814 49.979ZM244.712 54V48.8071C244.712 48.1528 244.563 47.6646 244.265 47.3423C243.967 47.02 243.501 46.8589 242.866 46.8589C242.026 46.8589 241.411 47.0859 241.02 47.54C240.63 47.9941 240.434 48.7437 240.434 49.7886V54H239.218V45.9727H240.207L240.405 47.0713H240.464C240.713 46.6758 241.062 46.3706 241.511 46.1558C241.96 45.936 242.461 45.8262 243.012 45.8262C243.979 45.8262 244.707 46.0605 245.195 46.5293C245.683 46.9932 245.927 47.7378 245.927 48.7632V54H244.712Z" fill="#5C5C5C"/>
</svg>
