<svg width="249" height="59" viewBox="0 0 249 59" fill="none" xmlns="http://www.w3.org/2000/svg">
<path d="M40.6065 40.8306C40.8085 35.1448 51.4774 30.2294 52.6853 28.1092C53.8931 25.989 51.4774 25.0046 50.2695 25.0803C49.0616 25.156 37.8888 30.608 39.3986 28.715C40.1341 25.8312 50.194 16.145 49.6656 13.5705C49.4953 12.7412 48.9535 11.7376 47.1417 11.6619C45.3299 11.5862 35.2051 23.7453 33.9632 22.6572C32.5073 21.0885 38.2539 8.34385 38.7947 7.51267C39.3421 5.88094 39.9344 4.47492 36.9147 3.79341C35.2015 3.40678 29.2997 20.9746 25.508 20.8398C23.8032 20.7792 25.2816 8.42134 24.9041 5.69533C24.5267 2.96931 23.3084 1.91116 21.8844 2.06064C20.4605 2.21012 19.0157 3.5751 18.8647 6.30111C18.7137 9.02712 17.8078 29.4722 13.4293 28.715C11.0281 28.2997 8.5223 20.8398 4.97416 20.8398C4.12865 20.8398 1.96232 20.4612 1.95447 24.4745C1.95085 26.4051 5.35947 31.3495 7.99385 35.9843C10.6711 40.6949 13.919 45.5031 13.919 45.5031C13.4212 43.7328 13.5935 39.8707 13.5935 39.8707C13.6812 37.4029 16.147 34.6971 19.4687 34.7728C22.7903 34.8485 24.7531 38.5589 24.9041 37.8017C25.0551 37.0445 27.9238 34.7728 30.3396 34.7728C32.7553 34.7728 35.8505 37.6502 36.3789 41.4364C36.9074 45.2225 31.4719 49.6901 31.5474 48.0999C31.6229 46.5098 30.5093 43.2537 27.9238 43.2537C25.8855 43.2537 24.3002 45.071 24.3002 45.071C24.3002 45.071 22.2882 43.0534 21.012 43.0081C19.7358 42.9627 17.5926 43.8467 17.6569 47.4942C17.7211 51.1417 24.9041 55.9751 24.9041 55.9751L29 53C30.6819 52.3373 34.2462 50.7283 38.1727 52.869C41.3686 54.6115 42.5025 55.8579 46.5 56C50.4975 56.1421 52.0019 52.3935 55 52.5" stroke="white" stroke-width="2"/>
<path d="M76.464 34.4641C74.712 34.4641 73.08 34.1221 71.568 33.4381C70.068 32.7541 68.76 31.8121 67.644 30.6121C66.528 29.4001 65.652 28.0081 65.016 26.4361C64.392 24.8521 64.08 23.1601 64.08 21.3601C64.08 19.4641 64.416 17.7241 65.088 16.1401C65.772 14.5561 66.702 13.1821 67.878 12.0181C69.054 10.8541 70.386 9.95409 71.874 9.31809C73.374 8.68209 74.934 8.36409 76.554 8.36409C78.366 8.36409 80.124 8.79009 81.828 9.64209C83.544 10.4821 85.056 11.7841 86.364 13.5481L82.44 15.6541C81.636 14.6701 80.712 13.9381 79.668 13.4581C78.636 12.9661 77.58 12.7201 76.5 12.7201C75.444 12.7201 74.43 12.9361 73.458 13.3681C72.498 13.8001 71.64 14.4121 70.884 15.2041C70.14 15.9841 69.552 16.9081 69.12 17.9761C68.688 19.0321 68.472 20.1901 68.472 21.4501C68.472 22.6381 68.682 23.7601 69.102 24.8161C69.522 25.8601 70.098 26.7781 70.83 27.5701C71.574 28.3501 72.432 28.9621 73.404 29.4061C74.376 29.8501 75.42 30.0721 76.536 30.0721C77.28 30.0721 78.006 29.9581 78.714 29.7301C79.434 29.4901 80.106 29.1481 80.73 28.7041C81.366 28.2601 81.93 27.7201 82.422 27.0841C82.926 26.4481 83.346 25.7281 83.682 24.9241H79.092V21.0901H88.848C88.896 22.9261 88.608 24.6481 87.984 26.2561C87.36 27.8641 86.478 29.2861 85.338 30.5221C84.198 31.7581 82.872 32.7241 81.36 33.4201C79.848 34.1161 78.216 34.4641 76.464 34.4641ZM91.6532 33.9961V6.99609H96.0452V33.9961H91.6532ZM108.412 34.4641C106.756 34.4641 105.244 34.0381 103.876 33.1861C102.52 32.3341 101.434 31.1941 100.618 29.7661C99.814 28.3261 99.412 26.7361 99.412 24.9961C99.412 23.6761 99.646 22.4461 100.114 21.3061C100.582 20.1541 101.224 19.1461 102.04 18.2821C102.868 17.4061 103.828 16.7221 104.92 16.2301C106.012 15.7381 107.176 15.4921 108.412 15.4921C110.068 15.4921 111.574 15.9181 112.93 16.7701C114.298 17.6221 115.384 18.7681 116.188 20.2081C117.004 21.6481 117.412 23.2441 117.412 24.9961C117.412 26.3041 117.178 27.5281 116.71 28.6681C116.242 29.8081 115.594 30.8161 114.766 31.6921C113.95 32.5561 112.996 33.2341 111.904 33.7261C110.824 34.2181 109.66 34.4641 108.412 34.4641ZM108.412 30.0721C109.288 30.0721 110.074 29.8381 110.77 29.3701C111.466 28.9021 112.012 28.2841 112.408 27.5161C112.816 26.7481 113.02 25.9081 113.02 24.9961C113.02 24.0601 112.81 23.2081 112.39 22.4401C111.982 21.6601 111.424 21.0421 110.716 20.5861C110.02 20.1181 109.252 19.8841 108.412 19.8841C107.548 19.8841 106.768 20.1181 106.072 20.5861C105.376 21.0541 104.824 21.6781 104.416 22.4581C104.008 23.2381 103.804 24.0841 103.804 24.9961C103.804 25.9441 104.014 26.8021 104.434 27.5701C104.854 28.3381 105.412 28.9501 106.108 29.4061C106.816 29.8501 107.584 30.0721 108.412 30.0721ZM129.65 15.4921C131.402 15.4921 132.998 15.9181 134.438 16.7701C135.878 17.6221 137.024 18.7681 137.876 20.2081C138.728 21.6361 139.154 23.2201 139.154 24.9601C139.154 26.2681 138.908 27.4981 138.416 28.6501C137.924 29.8021 137.24 30.8161 136.364 31.6921C135.5 32.5561 134.492 33.2341 133.34 33.7261C132.2 34.2181 130.97 34.4641 129.65 34.4641C128.522 34.4641 127.52 34.2121 126.644 33.7081C125.78 33.1921 125.054 32.5261 124.466 31.7101V33.9961H120.074V6.99609H124.466V18.2461C125.054 17.4301 125.78 16.7701 126.644 16.2661C127.52 15.7501 128.522 15.4921 129.65 15.4921ZM129.596 30.2161C130.532 30.2161 131.378 29.9821 132.134 29.5141C132.902 29.0341 133.514 28.3981 133.97 27.6061C134.426 26.8141 134.654 25.9321 134.654 24.9601C134.654 24.0001 134.426 23.1241 133.97 22.3321C133.514 21.5281 132.902 20.8921 132.134 20.4241C131.366 19.9561 130.52 19.7221 129.596 19.7221C128.684 19.7221 127.868 19.9621 127.148 20.4421C126.428 20.9101 125.864 21.5461 125.456 22.3501C125.048 23.1421 124.844 24.0121 124.844 24.9601C124.844 25.9321 125.048 26.8201 125.456 27.6241C125.864 28.4161 126.428 29.0461 127.148 29.5141C127.868 29.9821 128.684 30.2161 129.596 30.2161ZM155.835 15.9961H160.227V33.9961H155.817L155.637 31.7641C155.133 32.5681 154.473 33.2221 153.657 33.7261C152.853 34.2181 151.905 34.4641 150.813 34.4641C149.481 34.4641 148.233 34.2121 147.069 33.7081C145.905 33.2041 144.879 32.5081 143.991 31.6201C143.103 30.7321 142.413 29.7061 141.921 28.5421C141.429 27.3781 141.183 26.1301 141.183 24.7981C141.183 23.5141 141.417 22.3081 141.885 21.1801C142.353 20.0521 143.013 19.0621 143.865 18.2101C144.717 17.3581 145.701 16.6921 146.817 16.2121C147.933 15.7321 149.133 15.4921 150.417 15.4921C151.617 15.4921 152.685 15.7561 153.621 16.2841C154.569 16.8121 155.373 17.4841 156.033 18.3001L155.835 15.9961ZM150.939 30.2341C151.899 30.2341 152.733 29.9881 153.441 29.4961C154.149 29.0041 154.683 28.3501 155.043 27.5341C155.415 26.7061 155.565 25.7941 155.493 24.7981C155.409 23.8621 155.133 23.0161 154.665 22.2601C154.197 21.4921 153.597 20.8801 152.865 20.4241C152.133 19.9681 151.311 19.7401 150.399 19.7401C149.451 19.7401 148.599 19.9861 147.843 20.4781C147.099 20.9701 146.523 21.6301 146.115 22.4581C145.707 23.2741 145.545 24.1861 145.629 25.1941C145.725 26.1181 146.025 26.9641 146.529 27.7321C147.033 28.4881 147.669 29.0941 148.437 29.5501C149.217 30.0061 150.051 30.2341 150.939 30.2341ZM164.673 33.9961V6.99609H169.065V33.9961H164.673Z" fill="white"/>
<path d="M184.816 34.4641C183.064 34.4641 181.432 34.1221 179.92 33.4381C178.42 32.7541 177.112 31.8121 175.996 30.6121C174.88 29.4001 174.004 28.0081 173.368 26.4361C172.744 24.8521 172.432 23.1601 172.432 21.3601C172.432 19.4641 172.768 17.7241 173.44 16.1401C174.124 14.5561 175.054 13.1821 176.23 12.0181C177.406 10.8541 178.738 9.95409 180.226 9.31809C181.726 8.68209 183.286 8.36409 184.906 8.36409C186.718 8.36409 188.476 8.79009 190.18 9.64209C191.896 10.4821 193.408 11.7841 194.716 13.5481L190.792 15.6541C189.988 14.6701 189.064 13.9381 188.02 13.4581C186.988 12.9661 185.932 12.7201 184.852 12.7201C183.796 12.7201 182.782 12.9361 181.81 13.3681C180.85 13.8001 179.992 14.4121 179.236 15.2041C178.492 15.9841 177.904 16.9081 177.472 17.9761C177.04 19.0321 176.824 20.1901 176.824 21.4501C176.824 22.6381 177.034 23.7601 177.454 24.8161C177.874 25.8601 178.45 26.7781 179.182 27.5701C179.926 28.3501 180.784 28.9621 181.756 29.4061C182.728 29.8501 183.772 30.0721 184.888 30.0721C185.632 30.0721 186.358 29.9581 187.066 29.7301C187.786 29.4901 188.458 29.1481 189.082 28.7041C189.718 28.2601 190.282 27.7201 190.774 27.0841C191.278 26.4481 191.698 25.7281 192.034 24.9241H187.444V21.0901H197.2C197.248 22.9261 196.96 24.6481 196.336 26.2561C195.712 27.8641 194.83 29.2861 193.69 30.5221C192.55 31.7581 191.224 32.7241 189.712 33.4201C188.2 34.1161 186.568 34.4641 184.816 34.4641ZM200.441 15.9961H204.833V33.9961H200.441V15.9961ZM202.655 13.3141C202.019 13.3141 201.479 13.1041 201.035 12.6841C200.591 12.2521 200.369 11.7121 200.369 11.0641C200.369 10.4281 200.591 9.89409 201.035 9.46209C201.479 9.03009 202.019 8.81409 202.655 8.81409C203.291 8.81409 203.825 9.03009 204.257 9.46209C204.701 9.89409 204.923 10.4281 204.923 11.0641C204.923 11.7121 204.701 12.2521 204.257 12.6841C203.825 13.1041 203.291 13.3141 202.655 13.3141ZM221.99 33.9961H216.32L209.768 15.9781H214.448L219.164 28.9381L223.862 15.9781H228.542L221.99 33.9961ZM238.139 34.4641C236.483 34.4641 234.971 34.0381 233.603 33.1861C232.247 32.3341 231.161 31.1881 230.345 29.7481C229.541 28.3081 229.139 26.7181 229.139 24.9781C229.139 23.6701 229.373 22.4461 229.841 21.3061C230.309 20.1541 230.951 19.1461 231.767 18.2821C232.595 17.4061 233.555 16.7221 234.647 16.2301C235.739 15.7381 236.903 15.4921 238.139 15.4921C239.543 15.4921 240.827 15.7921 241.991 16.3921C243.167 16.9801 244.163 17.7901 244.979 18.8221C245.795 19.8541 246.389 21.0301 246.761 22.3501C247.133 23.6701 247.217 25.0501 247.013 26.4901H233.855C234.023 27.1621 234.299 27.7681 234.683 28.3081C235.067 28.8361 235.553 29.2621 236.141 29.5861C236.729 29.8981 237.395 30.0601 238.139 30.0721C238.907 30.0841 239.603 29.9041 240.227 29.5321C240.863 29.1481 241.391 28.6321 241.811 27.9841L246.293 29.0281C245.561 30.6241 244.469 31.9321 243.017 32.9521C241.565 33.9601 239.939 34.4641 238.139 34.4641ZM233.711 23.1961H242.567C242.435 22.4761 242.153 21.8281 241.721 21.2521C241.301 20.6641 240.779 20.1961 240.155 19.8481C239.531 19.5001 238.859 19.3261 238.139 19.3261C237.419 19.3261 236.753 19.5001 236.141 19.8481C235.529 20.1841 235.007 20.6461 234.575 21.2341C234.155 21.8101 233.867 22.4641 233.711 23.1961Z" fill="#E6F6EC"/>
<path d="M65.5049 54.9961H64.2891V46.9688H65.5049V54.9961ZM64.1865 44.7935C64.1865 44.5151 64.2549 44.3125 64.3916 44.1855C64.5283 44.0537 64.6992 43.9878 64.9043 43.9878C65.0996 43.9878 65.2681 44.0537 65.4097 44.1855C65.5513 44.3174 65.6221 44.52 65.6221 44.7935C65.6221 45.0669 65.5513 45.272 65.4097 45.4087C65.2681 45.5405 65.0996 45.6064 64.9043 45.6064C64.6992 45.6064 64.5283 45.5405 64.3916 45.4087C64.2549 45.272 64.1865 45.0669 64.1865 44.7935ZM73.7262 54.9961V49.8032C73.7262 49.1489 73.5772 48.6606 73.2794 48.3384C72.9815 48.0161 72.5152 47.855 71.8805 47.855C71.0406 47.855 70.4254 48.082 70.0348 48.5361C69.6441 48.9902 69.4488 49.7397 69.4488 50.7847V54.9961H68.233V46.9688H69.2218L69.4195 48.0674H69.4781C69.7271 47.6719 70.0763 47.3667 70.5255 47.1519C70.9747 46.9321 71.4752 46.8223 72.027 46.8223C72.9938 46.8223 73.7213 47.0566 74.2096 47.5254C74.6979 47.9893 74.942 48.7339 74.942 49.7593V54.9961H73.7262ZM80.1896 54.1392C80.4045 54.1392 80.612 54.1245 80.8122 54.0952C81.0124 54.061 81.1711 54.0269 81.2883 53.9927V54.9229C81.1564 54.9863 80.9611 55.0376 80.7023 55.0767C80.4484 55.1206 80.2189 55.1426 80.0139 55.1426C78.4611 55.1426 77.6848 54.3247 77.6848 52.689V47.9136H76.5349V47.3276L77.6848 46.8223L78.1975 45.1084H78.9006V46.9688H81.2297V47.9136H78.9006V52.6377C78.9006 53.1211 79.0153 53.4922 79.2448 53.751C79.4743 54.0098 79.7893 54.1392 80.1896 54.1392ZM86.4407 55.1426C85.2542 55.1426 84.3167 54.7812 83.6282 54.0586C82.9446 53.3359 82.6028 52.3325 82.6028 51.0483C82.6028 49.7544 82.9202 48.7266 83.555 47.9648C84.1946 47.2031 85.0516 46.8223 86.1258 46.8223C87.1316 46.8223 87.9275 47.1543 88.5135 47.8184C89.0994 48.4775 89.3924 49.3491 89.3924 50.4331V51.2021H83.8626C83.887 52.1445 84.1238 52.8599 84.573 53.3481C85.0271 53.8364 85.6644 54.0806 86.4847 54.0806C87.3489 54.0806 88.2034 53.8999 89.0481 53.5386V54.6226C88.6185 54.8081 88.2107 54.9399 87.825 55.0181C87.4441 55.1011 86.9827 55.1426 86.4407 55.1426ZM86.1111 47.8403C85.4666 47.8403 84.9515 48.0503 84.5657 48.4702C84.1849 48.8901 83.9603 49.4712 83.8919 50.2134H88.0887C88.0887 49.4468 87.9178 48.8608 87.576 48.4556C87.2342 48.0454 86.7459 47.8403 86.1111 47.8403ZM95.2846 46.8223C95.641 46.8223 95.9608 46.8516 96.244 46.9102L96.0756 48.0381C95.7436 47.9648 95.4506 47.9282 95.1967 47.9282C94.5473 47.9282 93.9906 48.1919 93.5268 48.7192C93.0678 49.2466 92.8383 49.9033 92.8383 50.6895V54.9961H91.6225V46.9688H92.6259L92.765 48.4556H92.8236C93.1215 47.9331 93.4804 47.5303 93.9003 47.2471C94.3202 46.9639 94.7816 46.8223 95.2846 46.8223ZM103.389 54.9961V49.8032C103.389 49.1489 103.24 48.6606 102.942 48.3384C102.644 48.0161 102.178 47.855 101.543 47.855C100.703 47.855 100.088 48.082 99.6973 48.5361C99.3066 48.9902 99.1113 49.7397 99.1113 50.7847V54.9961H97.8955V46.9688H98.8843L99.082 48.0674H99.1406C99.3896 47.6719 99.7388 47.3667 100.188 47.1519C100.637 46.9321 101.138 46.8223 101.689 46.8223C102.656 46.8223 103.384 47.0566 103.872 47.5254C104.36 47.9893 104.604 48.7339 104.604 49.7593V54.9961H103.389ZM112.196 54.9961L111.954 53.8535H111.896C111.495 54.3564 111.095 54.6982 110.694 54.8789C110.299 55.0547 109.803 55.1426 109.208 55.1426C108.412 55.1426 107.787 54.9375 107.333 54.5273C106.883 54.1172 106.659 53.5337 106.659 52.7769C106.659 51.1558 107.955 50.3062 110.548 50.228L111.91 50.1841V49.686C111.91 49.0562 111.774 48.5923 111.5 48.2944C111.232 47.9917 110.799 47.8403 110.204 47.8403C109.535 47.8403 108.778 48.0454 107.933 48.4556L107.56 47.5254C107.955 47.3105 108.387 47.1421 108.856 47.02C109.33 46.8979 109.803 46.8369 110.277 46.8369C111.234 46.8369 111.942 47.0493 112.401 47.4741C112.865 47.8989 113.097 48.5801 113.097 49.5176V54.9961H112.196ZM109.449 54.1392C110.206 54.1392 110.799 53.9316 111.229 53.5166C111.664 53.1016 111.881 52.5205 111.881 51.7734V51.0483L110.665 51.0996C109.698 51.1338 109 51.2852 108.57 51.5537C108.146 51.8174 107.933 52.23 107.933 52.7915C107.933 53.231 108.065 53.5654 108.329 53.7949C108.597 54.0244 108.971 54.1392 109.449 54.1392ZM118.352 54.1392C118.567 54.1392 118.774 54.1245 118.974 54.0952C119.175 54.061 119.333 54.0269 119.45 53.9927V54.9229C119.319 54.9863 119.123 55.0376 118.864 55.0767C118.611 55.1206 118.381 55.1426 118.176 55.1426C116.623 55.1426 115.847 54.3247 115.847 52.689V47.9136H114.697V47.3276L115.847 46.8223L116.36 45.1084H117.063V46.9688H119.392V47.9136H117.063V52.6377C117.063 53.1211 117.177 53.4922 117.407 53.751C117.636 54.0098 117.951 54.1392 118.352 54.1392ZM122.428 54.9961H121.212V46.9688H122.428V54.9961ZM121.109 44.7935C121.109 44.5151 121.178 44.3125 121.314 44.1855C121.451 44.0537 121.622 43.9878 121.827 43.9878C122.022 43.9878 122.191 44.0537 122.332 44.1855C122.474 44.3174 122.545 44.52 122.545 44.7935C122.545 45.0669 122.474 45.272 122.332 45.4087C122.191 45.5405 122.022 45.6064 121.827 45.6064C121.622 45.6064 121.451 45.5405 121.314 45.4087C121.178 45.272 121.109 45.0669 121.109 44.7935ZM132.084 50.9751C132.084 52.2837 131.755 53.3066 131.096 54.0439C130.436 54.7764 129.526 55.1426 128.364 55.1426C127.646 55.1426 127.009 54.9741 126.452 54.6372C125.895 54.3003 125.466 53.8169 125.163 53.187C124.86 52.5571 124.709 51.8198 124.709 50.9751C124.709 49.6665 125.036 48.6484 125.69 47.9209C126.345 47.1885 127.253 46.8223 128.415 46.8223C129.538 46.8223 130.429 47.1958 131.088 47.9429C131.752 48.6899 132.084 49.7007 132.084 50.9751ZM125.969 50.9751C125.969 52.0005 126.174 52.7817 126.584 53.3188C126.994 53.856 127.597 54.1245 128.393 54.1245C129.189 54.1245 129.792 53.8584 130.202 53.3262C130.617 52.7891 130.825 52.0054 130.825 50.9751C130.825 49.9546 130.617 49.1807 130.202 48.6533C129.792 48.1211 129.184 47.855 128.378 47.855C127.582 47.855 126.982 48.1162 126.577 48.6387C126.171 49.1611 125.969 49.9399 125.969 50.9751ZM139.866 54.9961V49.8032C139.866 49.1489 139.717 48.6606 139.419 48.3384C139.122 48.0161 138.655 47.855 138.021 47.855C137.181 47.855 136.565 48.082 136.175 48.5361C135.784 48.9902 135.589 49.7397 135.589 50.7847V54.9961H134.373V46.9688H135.362L135.56 48.0674H135.618C135.867 47.6719 136.216 47.3667 136.666 47.1519C137.115 46.9321 137.615 46.8223 138.167 46.8223C139.134 46.8223 139.861 47.0566 140.35 47.5254C140.838 47.9893 141.082 48.7339 141.082 49.7593V54.9961H139.866ZM148.673 54.9961L148.432 53.8535H148.373C147.973 54.3564 147.572 54.6982 147.172 54.8789C146.776 55.0547 146.281 55.1426 145.685 55.1426C144.889 55.1426 144.264 54.9375 143.81 54.5273C143.361 54.1172 143.136 53.5337 143.136 52.7769C143.136 51.1558 144.433 50.3062 147.025 50.228L148.388 50.1841V49.686C148.388 49.0562 148.251 48.5923 147.978 48.2944C147.709 47.9917 147.277 47.8403 146.681 47.8403C146.012 47.8403 145.255 48.0454 144.411 48.4556L144.037 47.5254C144.433 47.3105 144.865 47.1421 145.334 47.02C145.807 46.8979 146.281 46.8369 146.754 46.8369C147.712 46.8369 148.42 47.0493 148.879 47.4741C149.342 47.8989 149.574 48.5801 149.574 49.5176V54.9961H148.673ZM145.927 54.1392C146.684 54.1392 147.277 53.9316 147.707 53.5166C148.141 53.1016 148.358 52.5205 148.358 51.7734V51.0483L147.143 51.0996C146.176 51.1338 145.478 51.2852 145.048 51.5537C144.623 51.8174 144.411 52.23 144.411 52.7915C144.411 53.231 144.543 53.5654 144.806 53.7949C145.075 54.0244 145.448 54.1392 145.927 54.1392ZM153.452 54.9961H152.237V43.5996H153.452V54.9961ZM167.156 50.9751C167.156 52.2837 166.826 53.3066 166.167 54.0439C165.508 54.7764 164.597 55.1426 163.435 55.1426C162.717 55.1426 162.08 54.9741 161.523 54.6372C160.967 54.3003 160.537 53.8169 160.234 53.187C159.932 52.5571 159.78 51.8198 159.78 50.9751C159.78 49.6665 160.107 48.6484 160.762 47.9209C161.416 47.1885 162.324 46.8223 163.486 46.8223C164.609 46.8223 165.5 47.1958 166.16 47.9429C166.824 48.6899 167.156 49.7007 167.156 50.9751ZM161.04 50.9751C161.04 52.0005 161.245 52.7817 161.655 53.3188C162.065 53.856 162.668 54.1245 163.464 54.1245C164.26 54.1245 164.863 53.8584 165.273 53.3262C165.688 52.7891 165.896 52.0054 165.896 50.9751C165.896 49.9546 165.688 49.1807 165.273 48.6533C164.863 48.1211 164.255 47.855 163.45 47.855C162.654 47.855 162.053 48.1162 161.648 48.6387C161.243 49.1611 161.04 49.9399 161.04 50.9751ZM173.106 46.8223C173.463 46.8223 173.783 46.8516 174.066 46.9102L173.897 48.0381C173.565 47.9648 173.272 47.9282 173.019 47.9282C172.369 47.9282 171.812 48.1919 171.349 48.7192C170.89 49.2466 170.66 49.9033 170.66 50.6895V54.9961H169.444V46.9688H170.448L170.587 48.4556H170.646C170.943 47.9331 171.302 47.5303 171.722 47.2471C172.142 46.9639 172.604 46.8223 173.106 46.8223ZM182.287 46.9688V47.7378L180.8 47.9136C180.937 48.0845 181.059 48.3091 181.167 48.5874C181.274 48.8608 181.328 49.1709 181.328 49.5176C181.328 50.3037 181.059 50.9312 180.522 51.3999C179.985 51.8687 179.248 52.103 178.31 52.103C178.071 52.103 177.846 52.0835 177.636 52.0444C177.119 52.3179 176.86 52.6621 176.86 53.0771C176.86 53.2969 176.95 53.4604 177.131 53.5679C177.312 53.6704 177.622 53.7217 178.061 53.7217H179.482C180.351 53.7217 181.018 53.9048 181.482 54.271C181.95 54.6372 182.185 55.1694 182.185 55.8677C182.185 56.7563 181.828 57.4326 181.115 57.8965C180.402 58.3652 179.362 58.5996 177.995 58.5996C176.945 58.5996 176.135 58.4043 175.564 58.0137C174.997 57.623 174.714 57.0713 174.714 56.3584C174.714 55.8701 174.87 55.4478 175.183 55.0913C175.495 54.7349 175.935 54.4932 176.501 54.3662C176.296 54.2734 176.123 54.1294 175.981 53.9341C175.844 53.7388 175.776 53.5117 175.776 53.2529C175.776 52.96 175.854 52.7036 176.01 52.4839C176.167 52.2642 176.413 52.0518 176.75 51.8467C176.335 51.6758 175.996 51.3853 175.732 50.9751C175.473 50.5649 175.344 50.0962 175.344 49.5688C175.344 48.6899 175.608 48.0137 176.135 47.54C176.662 47.0615 177.409 46.8223 178.376 46.8223C178.796 46.8223 179.174 46.8711 179.511 46.9688H182.287ZM175.886 56.3438C175.886 56.7783 176.069 57.1079 176.435 57.3325C176.801 57.5571 177.326 57.6694 178.01 57.6694C179.03 57.6694 179.785 57.5156 180.273 57.208C180.766 56.9053 181.013 56.4927 181.013 55.9702C181.013 55.5356 180.879 55.2329 180.61 55.062C180.341 54.896 179.836 54.813 179.094 54.813H177.636C177.085 54.813 176.655 54.9448 176.347 55.2085C176.04 55.4722 175.886 55.8506 175.886 56.3438ZM176.545 49.5396C176.545 50.1011 176.704 50.5259 177.021 50.814C177.338 51.1021 177.78 51.2461 178.347 51.2461C179.533 51.2461 180.127 50.6699 180.127 49.5176C180.127 48.3115 179.526 47.7085 178.325 47.7085C177.754 47.7085 177.314 47.8623 177.006 48.1699C176.699 48.4775 176.545 48.9341 176.545 49.5396ZM189.022 54.9961L188.78 53.8535H188.721C188.321 54.3564 187.921 54.6982 187.52 54.8789C187.125 55.0547 186.629 55.1426 186.033 55.1426C185.238 55.1426 184.613 54.9375 184.158 54.5273C183.709 54.1172 183.485 53.5337 183.485 52.7769C183.485 51.1558 184.781 50.3062 187.374 50.228L188.736 50.1841V49.686C188.736 49.0562 188.599 48.5923 188.326 48.2944C188.057 47.9917 187.625 47.8403 187.029 47.8403C186.361 47.8403 185.604 48.0454 184.759 48.4556L184.385 47.5254C184.781 47.3105 185.213 47.1421 185.682 47.02C186.155 46.8979 186.629 46.8369 187.103 46.8369C188.06 46.8369 188.768 47.0493 189.227 47.4741C189.691 47.8989 189.923 48.5801 189.923 49.5176V54.9961H189.022ZM186.275 54.1392C187.032 54.1392 187.625 53.9316 188.055 53.5166C188.489 53.1016 188.707 52.5205 188.707 51.7734V51.0483L187.491 51.0996C186.524 51.1338 185.826 51.2852 185.396 51.5537C184.971 51.8174 184.759 52.23 184.759 52.7915C184.759 53.231 184.891 53.5654 185.154 53.7949C185.423 54.0244 185.797 54.1392 186.275 54.1392ZM198.078 54.9961V49.8032C198.078 49.1489 197.929 48.6606 197.631 48.3384C197.333 48.0161 196.867 47.855 196.232 47.855C195.392 47.855 194.777 48.082 194.387 48.5361C193.996 48.9902 193.801 49.7397 193.801 50.7847V54.9961H192.585V46.9688H193.574L193.771 48.0674H193.83C194.079 47.6719 194.428 47.3667 194.877 47.1519C195.326 46.9321 195.827 46.8223 196.379 46.8223C197.346 46.8223 198.073 47.0566 198.561 47.5254C199.05 47.9893 199.294 48.7339 199.294 49.7593V54.9961H198.078ZM203.164 54.9961H201.949V46.9688H203.164V54.9961ZM201.846 44.7935C201.846 44.5151 201.914 44.3125 202.051 44.1855C202.188 44.0537 202.359 43.9878 202.564 43.9878C202.759 43.9878 202.928 44.0537 203.069 44.1855C203.211 44.3174 203.282 44.52 203.282 44.7935C203.282 45.0669 203.211 45.272 203.069 45.4087C202.928 45.5405 202.759 45.6064 202.564 45.6064C202.359 45.6064 202.188 45.5405 202.051 45.4087C201.914 45.272 201.846 45.0669 201.846 44.7935ZM211.027 54.9961H205.204V54.1685L209.584 47.9136H205.475V46.9688H210.917V47.9136L206.596 54.0513H211.027V54.9961ZM217.996 54.9961L217.754 53.8535H217.695C217.295 54.3564 216.895 54.6982 216.494 54.8789C216.099 55.0547 215.603 55.1426 215.007 55.1426C214.212 55.1426 213.587 54.9375 213.132 54.5273C212.683 54.1172 212.459 53.5337 212.459 52.7769C212.459 51.1558 213.755 50.3062 216.348 50.228L217.71 50.1841V49.686C217.71 49.0562 217.573 48.5923 217.3 48.2944C217.031 47.9917 216.599 47.8403 216.004 47.8403C215.335 47.8403 214.578 48.0454 213.733 48.4556L213.359 47.5254C213.755 47.3105 214.187 47.1421 214.656 47.02C215.129 46.8979 215.603 46.8369 216.077 46.8369C217.034 46.8369 217.742 47.0493 218.201 47.4741C218.665 47.8989 218.897 48.5801 218.897 49.5176V54.9961H217.996ZM215.249 54.1392C216.006 54.1392 216.599 53.9316 217.029 53.5166C217.463 53.1016 217.681 52.5205 217.681 51.7734V51.0483L216.465 51.0996C215.498 51.1338 214.8 51.2852 214.37 51.5537C213.945 51.8174 213.733 52.23 213.733 52.7915C213.733 53.231 213.865 53.5654 214.129 53.7949C214.397 54.0244 214.771 54.1392 215.249 54.1392ZM224.152 54.1392C224.366 54.1392 224.574 54.1245 224.774 54.0952C224.974 54.061 225.133 54.0269 225.25 53.9927V54.9229C225.118 54.9863 224.923 55.0376 224.664 55.0767C224.41 55.1206 224.181 55.1426 223.976 55.1426C222.423 55.1426 221.647 54.3247 221.647 52.689V47.9136H220.497V47.3276L221.647 46.8223L222.159 45.1084H222.863V46.9688H225.192V47.9136H222.863V52.6377C222.863 53.1211 222.977 53.4922 223.207 53.751C223.436 54.0098 223.751 54.1392 224.152 54.1392ZM228.227 54.9961H227.012V46.9688H228.227V54.9961ZM226.909 44.7935C226.909 44.5151 226.977 44.3125 227.114 44.1855C227.251 44.0537 227.422 43.9878 227.627 43.9878C227.822 43.9878 227.991 44.0537 228.132 44.1855C228.274 44.3174 228.345 44.52 228.345 44.7935C228.345 45.0669 228.274 45.272 228.132 45.4087C227.991 45.5405 227.822 45.6064 227.627 45.6064C227.422 45.6064 227.251 45.5405 227.114 45.4087C226.977 45.272 226.909 45.0669 226.909 44.7935ZM237.884 50.9751C237.884 52.2837 237.555 53.3066 236.895 54.0439C236.236 54.7764 235.326 55.1426 234.163 55.1426C233.446 55.1426 232.809 54.9741 232.252 54.6372C231.695 54.3003 231.266 53.8169 230.963 53.187C230.66 52.5571 230.509 51.8198 230.509 50.9751C230.509 49.6665 230.836 48.6484 231.49 47.9209C232.144 47.1885 233.053 46.8223 234.215 46.8223C235.338 46.8223 236.229 47.1958 236.888 47.9429C237.552 48.6899 237.884 49.7007 237.884 50.9751ZM231.768 50.9751C231.768 52.0005 231.974 52.7817 232.384 53.3188C232.794 53.856 233.397 54.1245 234.193 54.1245C234.989 54.1245 235.592 53.8584 236.002 53.3262C236.417 52.7891 236.624 52.0054 236.624 50.9751C236.624 49.9546 236.417 49.1807 236.002 48.6533C235.592 48.1211 234.984 47.855 234.178 47.855C233.382 47.855 232.782 48.1162 232.376 48.6387C231.971 49.1611 231.768 49.9399 231.768 50.9751ZM245.666 54.9961V49.8032C245.666 49.1489 245.517 48.6606 245.219 48.3384C244.921 48.0161 244.455 47.855 243.82 47.855C242.98 47.855 242.365 48.082 241.975 48.5361C241.584 48.9902 241.389 49.7397 241.389 50.7847V54.9961H240.173V46.9688H241.162L241.359 48.0674H241.418C241.667 47.6719 242.016 47.3667 242.465 47.1519C242.915 46.9321 243.415 46.8223 243.967 46.8223C244.934 46.8223 245.661 47.0566 246.149 47.5254C246.638 47.9893 246.882 48.7339 246.882 49.7593V54.9961H245.666Z" fill="#EBEBEB"/>
</svg>
