<svg width="223" height="164" viewBox="0 0 223 164" fill="none" xmlns="http://www.w3.org/2000/svg">
<path d="M12.1112 127.276C38.3493 162.004 85.4208 134.606 104.019 106.607C113.922 91.7643 118.819 72.9244 112.273 55.7814C103.211 32.1293 74.8853 22.7781 52.1943 18.3139C51.3045 18.1451 50.6292 19.9209 51.6241 20.1223C85.1889 26.9683 122.557 47.1902 111.321 86.9704C103.758 113.546 77.2959 137.466 49.5751 140.793C35.2952 142.477 22.3796 136.358 13.4857 125.371C-2.14013 106.182 0.577238 82.9676 13.0691 62.8987C19.0536 53.3611 27.8754 44.8334 38.7057 41.2762C53.1371 36.5391 65.5093 47.4145 72.2415 59.0143C84.5662 80.3209 66.839 107.03 45.6163 113.738C29.4487 118.842 20.411 105.324 25.1667 90.7651C27.5653 83.4037 34.9387 72.6677 44.2696 76.3072C45.5741 76.8328 46.7463 77.637 47.7035 78.6631C48.6607 79.6891 49.3795 80.9119 49.8092 82.2451C43.4351 82.9003 37.7049 86.9889 32.7945 91.5572C32.4628 91.8573 32.2149 92.2379 32.0752 92.6617C31.9355 93.0855 31.9088 93.5379 31.9977 93.9748C32.0866 94.4117 32.288 94.818 32.5822 95.154C32.8765 95.49 33.2535 95.7442 33.6763 95.8916C40.5606 98.2208 47.0773 98.9536 53.142 94.4402C55.1542 92.8042 56.4725 90.4738 56.8333 87.9149C59.4875 87.4251 60.9439 84.1952 57.5882 83.0941L56.8984 82.8902C56.6311 81.1672 55.9959 79.5215 55.0355 78.0638C45.0283 63.4601 27.3565 71.0466 20.8081 84.5755C13.4015 99.7978 17.2927 115.869 35.5383 119.098C50.8036 121.766 65.322 109.529 72.7677 97.6577C91.0982 68.4712 62.7472 22.6665 28.9056 44.1057C15.2528 52.7396 5.08685 69.6916 1.72755 85.1052C-1.63175 100.519 2.46375 114.617 12.1112 127.276ZM41.6503 91.8472C44.132 89.7323 47.1056 88.2683 50.3003 87.5886C49.4317 91.163 45.4748 92.1337 41.6503 91.8472Z" fill="#007931"/>
<path d="M159.921 39.2713C163.875 32.79 162.452 24.2511 157.448 18.4619C152.195 12.3608 142.197 12.6221 136.504 17.9698C135.013 19.2764 133.921 20.9757 133.352 22.8748C132.784 24.7738 132.761 26.7966 133.287 28.7135C133.813 30.6305 134.866 32.3647 136.328 33.7195C137.789 35.0743 139.6 35.9953 141.555 36.3781C144.351 37.0505 149.707 36.4314 150.214 33.3202C150.853 29.3437 147.002 27.329 142.971 26.2815C140.645 25.6778 140.072 28.7776 141.876 29.5875C143.01 29.9428 144.016 30.6223 144.769 31.5414C144.834 31.5862 144.902 31.6275 144.972 31.6651C144.602 32.1681 144.162 32.6152 143.664 32.9925C142.078 33.0023 140.52 32.5571 139.176 31.71C135.44 29.6494 136.151 24.6684 137.626 21.8421C139.497 18.2237 144.781 16.4983 149.205 17.2615C156.793 18.528 159.334 26.8902 159.019 32.3746C158.373 42.5771 146.047 47.1097 135.547 43.1783C123.028 38.4521 119.817 25.475 123.074 15.3369C127.163 2.08238 143.703 0.193493 156.703 5.54774C170.865 11.2764 178.449 23.996 176.425 36.9381C176.359 37.3345 177.24 37.7851 177.397 37.3128C182.317 21.5671 169.973 6.71484 152.123 1.96764C134.273 -2.77956 120.787 7.49375 119.079 22.2447C118.035 31.1562 123.186 40.761 132.772 45.2553C142.358 49.7496 154.602 47.8457 159.921 39.2713Z" fill="#688F8E"/>
<path d="M149.493 155.041C180.684 176.885 227.189 156.503 222.294 116.754C221.867 113.29 218.082 115.076 218.406 118.027C221.999 150.097 188.228 162.838 162.043 154C135.858 145.163 125.071 103.115 145.391 83.4901C157.287 72.0276 179.882 78.4376 187.937 91.2634C192.771 98.9357 189.878 107.116 184.585 113.617C169.543 132.141 149.78 111.454 167.855 103.942C167.763 104.451 167.773 104.973 167.884 105.478C167.995 105.983 168.204 106.462 168.5 106.887C168.796 107.312 169.173 107.674 169.61 107.953C170.046 108.233 170.534 108.423 171.044 108.515C180.133 109.36 181.178 102.665 177.652 95.6961C176.991 94.7324 176.06 93.9844 174.975 93.5459C173.891 93.1073 172.7 92.9978 171.553 93.231C157.925 95.613 138.763 108.661 153.16 123.494C166.763 137.544 186.414 129.258 196.26 115.127C214.602 88.9186 179.838 67.7525 156.367 69.6878C113.104 73.2765 123.603 136.894 149.493 155.041Z" fill="#B0B0B0"/>
</svg>
