<svg width="142" height="131" viewBox="0 0 142 131" fill="none" xmlns="http://www.w3.org/2000/svg">
<g opacity="0.4">
<path d="M70.7395 92.388C68.31 95.79 65.9402 99.0296 62.542 101.561C58.883 104.276 53.9869 103.516 49.9478 105.088C56.4611 105.9 70.1433 108.04 68.5783 112.468C66.991 117.095 58.9948 114.069 52.7275 110.77C55.7084 116.283 56.4536 123.227 56.4536 129.219C56.4536 129.322 56.4536 129.433 56.4536 129.536C56.4536 130.636 54.1509 131.536 53.7261 130.274C51.2445 123.146 48.055 116.209 45.2977 109.066C42.5404 116.689 37.7486 124.91 30.5125 128.289C29.7673 128.621 29.0221 128.289 29.1637 127.367C30.6988 119.404 35.8334 112.172 41.8399 106.616L40.6624 106.439C32.3607 111.464 26.2126 120.91 15.8913 121.618C15.0343 121.677 14.0581 120.969 14.4009 120.039C17.0837 113.383 23.1647 109.568 29.6555 106.549C23.2631 107.203 16.8172 107.151 10.4363 106.394C8.9459 106.232 8.35718 104.461 9.93705 103.834C18.3729 100.461 27.0771 101.502 35.7961 102.889C36.9338 102.638 38.0616 102.345 39.1794 102.011C33.404 96.5722 26.7194 91.4729 28.1502 82.7725C28.2614 82.3526 28.5295 81.9903 28.9003 81.7587C29.2711 81.5272 29.7168 81.4438 30.1474 81.5253C37.2344 82.5142 42.1752 89.0525 44.7835 95.9154C45.8491 88.772 48.1444 80.4701 54.3968 80.9055C54.9036 80.9055 55.6339 81.2006 55.6264 81.8353C55.5519 86.6836 55.0377 92.1076 53.2715 96.8821C58.3079 94.0477 63.7286 91.9428 69.3683 90.6317C70.5308 90.3808 71.4772 91.3475 70.7395 92.388ZM65.8285 112.313C64.707 111.56 63.5313 110.889 62.311 110.305C60.1436 109.641 57.939 109.101 55.7084 108.689C54.8886 108.52 54.0615 108.379 53.2417 108.224C57.3255 110.519 61.9161 112.423 65.8285 112.32V112.313ZM48.5021 109.176C50.0671 112.977 51.7066 116.74 53.2492 120.548C52.5561 116.349 51.1402 112.298 48.5021 109.176ZM31.6751 125.367C37.6368 121.677 41.1394 114.453 43.1962 107.76C38.151 112.667 33.5977 118.689 31.6751 125.367ZM18.4847 118.607C25.3556 117.065 30.6169 111.043 36.4072 106.49C29.5363 109.361 22.1214 112.519 18.4773 118.607H18.4847ZM30.8553 84.396C30.6169 91.6205 37.1972 96.2844 42.4584 101.118C42.751 101.137 43.0347 101.226 43.2856 101.376C41.7206 94.5354 37.5325 86.5065 30.8553 84.396ZM51.483 93.2735C51.9416 91.3672 52.2653 89.4316 52.4518 87.4806C52.7722 84.7502 52.6679 82.4847 50.7303 86.0638C48.286 90.5579 47.6675 96.1589 47.0862 101.347C47.66 100.823 48.2487 100.328 48.8598 99.8708C50.0452 97.8058 50.9284 95.5845 51.483 93.2735ZM50.1789 102.616C51.5783 102.176 53.0113 101.847 54.4639 101.635C60.4256 100.668 63.4065 98.1293 66.5439 93.9377C61.1112 95.6055 55.4774 98.0259 50.939 101.516C50.7005 101.895 50.4471 102.262 50.1789 102.616Z" fill="#009E3F"/>
<path d="M120.13 41.589C120.19 42.589 119.68 43.679 118.77 43.169L118.31 42.929C112.31 46.859 102.21 49.929 96.2 51.509C96.92 52.139 97.65 52.759 98.36 53.399C103.123 57.6837 107.476 62.4042 111.36 67.499C112.87 61.819 123.95 58.899 128.58 59.499C135.4 60.329 137.41 72.309 131.58 75.639C127.48 77.969 122.77 77.519 118.23 77.079L117.43 77.009C118.686 79.3611 119.762 81.8047 120.65 84.319C128.75 85.499 136.56 95.569 139.86 102.099C142.23 106.779 143.19 117.189 137.29 120.299C130.48 123.879 125.29 111.829 122.59 101.629C119.07 97.049 116.79 91.819 120.09 88.929C117.78 85.329 115.95 81.419 113.81 77.709C113.63 77.389 113.43 77.089 113.24 76.769C112.8 76.769 112.37 76.769 111.95 76.769C111.57 83.489 109.48 94.769 104 99.849C102.949 100.865 101.685 101.633 100.3 102.099C92.13 104.689 87.9 96.959 91.04 90.199C94.04 83.729 103.38 73.899 111.04 73.199C107.245 67.7643 102.979 62.6746 98.29 57.989C96.72 56.379 95.08 54.839 93.41 53.339C92.3836 57.9639 90.8406 62.4588 88.81 66.739C88.7 67.019 88.6 67.299 88.49 67.579C88.4472 67.674 88.3899 67.7618 88.32 67.839L88 68.489C85.92 73.059 82.44 80.769 76.63 81.309C71.21 81.819 69.95 72.539 70.55 69.029C71.44 63.809 75.55 58.489 80.55 55.169C80.5289 54.8341 80.5524 54.4978 80.62 54.169C80.644 54.0553 80.6951 53.949 80.769 53.8593C80.843 53.7695 80.9376 53.6991 81.0447 53.6539C81.1518 53.6087 81.2683 53.5901 81.3841 53.5997C81.5 53.6093 81.6118 53.6468 81.71 53.709L82.41 54.029L82.82 53.819C82.77 53.139 83.1 52.439 83.82 52.739C84.05 52.839 84.26 52.949 84.48 53.049C86.1667 52.3233 87.967 51.8969 89.8 51.789C90.37 51.789 91.04 52.869 90.27 53.019C88.9624 53.27 87.6922 53.6867 86.49 54.259C87.2393 54.8179 87.8942 55.4931 88.43 56.259C88.6621 56.5383 88.8759 56.8322 89.07 57.139C89.29 56.629 89.51 56.139 89.75 55.609C89.99 55.079 90.25 55.029 90.52 55.109C90.72 54.169 90.89 53.249 91.01 52.329C90.8525 52.1584 90.7413 51.9502 90.687 51.7244C90.6328 51.4986 90.6372 51.2626 90.7 51.039C82.3302 44.0817 73.0305 38.3262 63.07 33.939C61.07 33.039 58.95 32.229 56.83 31.479L56.47 31.889C58.95 40.019 60.47 48.799 57.32 55.169C57.42 55.949 57.06 56.889 56.38 56.799C54.19 60.059 50.49 62.499 44.66 63.609C44.13 63.709 43.74 63.209 43.57 62.789C39.25 52.609 36.57 35.149 49.72 30.419C49.7599 30.4148 49.8001 30.4148 49.84 30.419C49.5532 30.3248 49.3055 30.1383 49.1355 29.8888C48.9655 29.6392 48.8827 29.3405 48.9 29.039C43.4744 27.5914 37.9726 26.4463 32.42 25.609C22.17 23.989 9.37002 23.259 1.00002 30.459C0.60002 30.809 -0.28998 30.169 0.13002 29.729C11.36 17.829 32.9 21.469 49.4 26.259C51.14 18.149 56.5 2.25904 64.52 0.519039C64.5999 0.376499 64.7135 0.255695 64.8508 0.167202C64.9881 0.0787084 65.1451 0.025211 65.3079 0.0113942C65.4707 -0.00242262 65.6344 0.0238683 65.7847 0.0879628C65.935 0.152057 66.0673 0.251987 66.17 0.379039C66.8744 0.400692 67.5718 0.525348 68.24 0.749042C79.91 4.63904 67.64 19.849 58.92 29.289L60.34 29.779C71.0335 33.6345 81.0251 39.2113 89.92 46.289C90.25 42.559 95.26 37.839 97.47 36.059C103.98 30.809 114.76 26.119 121.54 33.199C124.38 36.169 123.24 39.019 120.13 41.589ZM128 73.699C130.36 72.999 132 71.509 132 68.559C132 68.0607 131.967 67.5629 131.9 67.069C129.489 66.9805 127.103 66.5392 124.82 65.759C124.942 65.8995 125.073 66.0331 125.21 66.159C125.663 66.4794 126.094 66.8302 126.5 67.209C126.653 67.3328 126.77 67.495 126.84 67.679C127.09 67.819 127.32 67.969 127.57 68.089C128.29 68.459 128.86 70.539 127.57 70.359L127.16 70.299L127.71 70.579C128.51 70.969 128.85 73.209 127.59 72.909L126.49 72.649L128 73.699ZM123.35 63.479C125.92 65.349 128.74 65.479 131.63 65.779C130.49 62.149 126.86 62.039 123.03 63.329C123.142 63.3595 123.247 63.4104 123.34 63.479H123.35ZM119.51 68.559C119.37 67.929 119.56 67.229 120.27 67.239C120.98 67.249 121.8 67.319 122.56 67.399C121.85 66.899 121.14 66.399 120.44 65.849C120.28 65.6855 120.155 65.4914 120.073 65.2782C119.99 65.0651 119.952 64.8374 119.96 64.609C117.961 65.6048 116.082 66.8261 114.36 68.249C114.472 68.1704 114.597 68.1128 114.73 68.079C115.376 67.8913 116.052 67.8344 116.72 67.9116C117.388 67.9889 118.034 68.1988 118.62 68.529C118.697 68.4824 118.783 68.4522 118.873 68.4401C118.962 68.4281 119.053 68.4345 119.14 68.459L119.51 68.559ZM122.37 90.209C122.339 92.5181 122.55 94.8241 123 97.089C122.84 96.089 123.32 94.909 124.3 95.359L125.3 95.799V95.719C124.9 94.939 125.3 93.719 126.3 94.099L125.7 92.889C125.612 92.6165 125.597 92.326 125.655 92.0456C125.712 91.7653 125.842 91.5046 126.03 91.289L125.92 91.189C125.452 90.7497 124.885 90.4295 124.267 90.2555C123.649 90.0814 122.999 90.0586 122.37 90.189V90.209ZM132.71 101.889L131.98 101.569C132.018 101.801 132.018 102.037 131.98 102.269C132.36 102.509 132.75 102.739 133.14 102.959C133 102.639 132.85 102.279 132.71 101.889ZM133.64 106.439H133.32L133.45 106.689L134.58 107.889C134.453 107.376 134.317 106.862 134.17 106.349C134.008 106.438 133.825 106.483 133.64 106.479V106.439ZM137.87 110.999C137.275 108.282 136.372 105.642 135.18 103.129L134.84 102.959C135.84 105.759 136.52 108.369 136.96 110.239C137.25 110.539 137.57 110.789 137.87 111.039V110.999ZM129 105.889C129.029 105.775 129.069 105.665 129.12 105.559L129.22 105.409C128.759 104.648 128.352 103.856 128 103.039L126.46 101.889C126.217 101.636 126.054 101.317 125.992 100.972C125.93 100.627 125.971 100.271 126.11 99.949L123.41 97.949C123.183 97.7576 123.03 97.4919 122.98 97.199C123.12 97.969 123.28 98.749 123.46 99.549C125.028 101.89 126.89 104.021 129 105.889ZM134.29 117.889C136.43 118.829 137.69 116.459 138.43 114.679C137.897 114.319 137.37 113.949 136.85 113.569C136.69 113.635 136.51 113.635 136.35 113.569C136.35 114.429 135.9 115.439 134.92 115.129C132.939 114.608 130.992 113.967 129.09 113.209C130.369 115.21 132.166 116.827 134.29 117.889ZM127.4 110.409C127.61 109.859 128.03 109.479 128.64 109.659C129.868 110.031 131.126 110.292 132.4 110.439L132.17 110.169C131.949 110.212 131.72 110.169 131.53 110.049C129.013 108.442 126.74 106.482 124.78 104.229C125.48 106.361 126.357 108.432 127.4 110.419V110.409ZM120.4 93.349C120.521 94.3583 120.841 95.3337 121.34 96.219C121.04 94.6747 120.82 93.1159 120.68 91.549C120.433 92.1149 120.34 92.7357 120.41 93.349H120.4ZM115.4 73.519C117.09 73.729 119.01 73.979 120.92 74.129C118.7 73.129 116.53 71.999 114.34 70.989C113.34 70.539 113.46 68.989 114.23 68.329C113.743 68.7396 113.285 69.1841 112.86 69.659C113.8 70.889 114.65 72.209 115.45 73.519H115.4ZM95.39 99.169C96.4696 99.7597 97.7139 99.9777 98.93 99.789C96.77 99.129 95.16 98.529 93.93 95.869C93.68 95.319 93.86 94.549 94.53 94.469C96.35 94.249 98.17 94.999 99.99 95.219C99.2188 93.7301 98.1174 92.4371 96.77 91.439C96.02 90.959 95.89 89.439 96.95 89.329C98.36 89.139 99.42 89.819 100.66 90.089C100.34 88.489 99.1 86.889 100.21 85.299C100.83 84.409 101.89 84.989 102.84 85.629L101.51 81.889C96.14 86.359 87.51 95.179 95.39 99.169ZM104.62 79.499C104.45 79.619 104.29 79.709 104.12 79.839L103.33 80.429C104.17 80.819 105.01 81.169 105.87 81.429C105.45 80.809 105.05 80.139 104.61 79.499H104.62ZM103.74 82.829L105.45 87.469C105.64 87.989 105.45 88.989 104.68 88.899C103.729 88.6749 102.846 88.2218 102.11 87.579C101.38 87.079 102.4 89.579 102.39 89.579C102.619 90.2403 102.684 90.9471 102.58 91.639C102.578 91.849 102.496 92.0504 102.351 92.2026C102.207 92.3548 102.01 92.4464 101.8 92.459C101.208 92.4284 100.625 92.307 100.07 92.099C100.91 93.279 101.63 94.569 102.49 95.769C102.9 96.339 102.78 97.359 101.98 97.459C100.15 97.669 98.32 96.899 96.49 96.669C97.68 97.959 99.32 98.359 100.94 98.979C104.67 96.609 107.18 89.849 108.61 83.909C108.534 83.9948 108.436 84.0586 108.327 84.0938C108.218 84.129 108.102 84.1343 107.99 84.109C106.53 83.8436 105.104 83.4142 103.74 82.829ZM106.1 78.569L106 78.619C106.754 79.9809 107.613 81.2816 108.57 82.509C108.699 82.6669 108.782 82.8571 108.81 83.059C109.14 81.589 109.41 80.189 109.61 78.939C108.42 78.889 107.27 78.589 106.09 78.569H106.1ZM74 72.889C73.54 72.549 73.09 72.179 72.64 71.809C72.64 74.859 73.76 77.999 76.77 78.389C77.94 78.539 79.08 77.719 80.08 76.659L77.24 75.309C76.2064 75.1277 75.2418 74.6678 74.45 73.979C74.1667 73.6862 74.0058 73.2964 74 72.889ZM76.43 63.269L76.18 63.099C75.2232 64.3632 74.3672 65.7007 73.62 67.099C73.2711 67.8009 73.022 68.5482 72.88 69.319C75.12 69.749 77.5 69.469 79.8 69.599C78.9139 67.7787 77.8451 66.0532 76.61 64.449C76.4864 64.2815 76.4077 64.0851 76.3815 63.8786C76.3552 63.672 76.3823 63.4622 76.46 63.269H76.43ZM79.21 59.579C78.57 60.229 77.96 60.889 77.38 61.579C79.38 62.099 81.38 62.579 83.38 63.069C83.38 63.069 83.38 63.019 83.38 62.989C82 61.889 80.66 60.689 79.24 59.579H79.21ZM79.21 63.669L80.13 64.339C81.13 64.909 82.19 65.519 83.18 66.179C83.0256 65.6877 82.9913 65.1664 83.08 64.659L79.21 63.669ZM85.21 68.269C85.21 68.609 84.92 68.849 84.44 68.599C83.63 68.179 82.84 67.709 82.07 67.219C81.3 66.729 80.43 66.399 79.59 66.009C80.38 67.379 81.07 68.779 81.95 70.189C82.3 70.749 82.37 71.969 81.37 71.799C79.2534 71.5926 77.1259 71.5191 75 71.579C76.0634 72.3801 77.1682 73.1244 78.31 73.809C79.09 73.809 79.89 73.719 80.8 73.699C81.0293 73.7458 81.2349 73.8715 81.3811 74.0542C81.5273 74.2369 81.6047 74.4651 81.6 74.699L82.43 73.499C83.6082 71.7552 84.6801 69.9419 85.64 68.069C85.5402 68.1564 85.4249 68.2242 85.3 68.269H85.21ZM82.91 56.409L82.53 56.699C82.9 57.889 83.62 59.239 83.53 60.389C83.5181 60.5585 83.4668 60.7229 83.38 60.869L84.05 61.449C84.3476 61.4929 84.6165 61.6507 84.8 61.889C84.8 61.979 84.87 62.059 84.91 62.149C85.46 62.599 86.03 63.019 86.62 63.419C86.82 63.179 87.02 62.949 87.21 62.709C87.4262 61.7926 87.6899 60.8881 88 59.999C87.9364 59.5326 87.8155 59.0758 87.64 58.639L82.91 56.409ZM56.13 53.529C56.3365 53.0401 56.5135 52.5392 56.66 52.029C55.13 51.139 53.57 50.289 52.02 49.429C53.38 50.809 54.75 52.1757 56.13 53.529ZM51.34 58.699C52.7056 58.0275 53.8942 57.0444 54.81 55.829C53.68 55.069 52.56 54.309 51.47 53.509C51.3503 53.5845 51.2116 53.6246 51.07 53.6246C50.9285 53.6246 50.7898 53.5845 50.67 53.509C48.849 52.5356 46.9529 51.7096 45 51.039C46.1441 52.4559 47.3625 53.8112 48.65 55.099C49.21 55.629 49.15 57.099 48.17 57.099C47.0716 57.1093 45.9783 56.9474 44.93 56.619C45.47 56.739 45.11 57.919 44.68 57.969C45.39 57.899 46.15 59.359 45.29 59.569L44.94 59.659C44.822 59.6895 44.6981 59.6895 44.58 59.659C45.95 61.889 49.16 59.789 51.34 58.699ZM42.89 54.129C42.9673 54.0337 43.0738 53.9665 43.193 53.9376C43.3122 53.9087 43.4377 53.9197 43.55 53.969C44.16 54.159 44.72 54.309 45.29 54.439C44.29 53.339 43.36 52.209 42.37 51.109C42.4897 52.1242 42.6632 53.1323 42.89 54.129ZM50.56 32.469C43.85 35.029 42.03 41.039 42.11 47.419C43.48 47.929 44.83 48.419 46.11 48.879C46.0645 48.6321 46.0809 48.3777 46.1576 48.1387C46.2344 47.8996 46.3692 47.6833 46.55 47.509C45.66 46.639 44.78 45.759 43.88 44.909C42.98 44.059 43.41 41.579 44.94 42.459L45.4 42.719C45.09 41.719 45.56 40.369 46.72 40.719C47.26 40.889 47.78 41.089 48.29 41.289C47.84 40.629 47.95 38.609 49.18 38.839C49.9491 38.993 50.6952 39.245 51.4 39.589C51.2334 38.749 51.0967 37.909 50.99 37.069C49.46 37.419 47.87 36.189 49.25 34.609C49.69 34.109 50.17 33.609 50.66 33.079C50.66 32.859 50.66 32.649 50.66 32.429C50.6281 32.4457 50.5946 32.4591 50.56 32.469ZM52.76 35.749C53.1349 37.6825 53.6224 39.5924 54.22 41.469C54.48 42.329 54.07 43.669 53.16 43.589L53.39 43.959C53.5391 44.3149 53.6006 44.7014 53.5693 45.086C53.538 45.4705 53.4147 45.842 53.21 46.169C54.51 47.239 55.83 48.269 57.21 49.229C57.3699 47.7478 57.4 46.2555 57.3 44.769C57.0291 40.9081 56.2421 37.1009 54.96 33.449C54.05 34.379 53.3 35.159 52.75 35.749H52.76ZM64.42 5.88904C64.65 6.80904 64.88 7.72904 65.04 8.45904C65.2022 8.27547 65.3525 8.08174 65.49 7.87904C65.5667 7.74423 65.6685 7.62541 65.79 7.52904V7.45904C65.9059 7.27056 66.051 7.10178 66.22 6.95904C65.65 6.57904 65 6.22904 64.42 5.88904ZM69.13 8.09904C69.33 6.15904 68.65 4.99904 67.61 4.43904C67.74 4.66905 67.87 4.89904 67.98 5.12904C68.0641 5.38958 68.0958 5.66415 68.0735 5.937C68.0512 6.20985 67.9753 6.47561 67.85 6.71904C68.2199 6.89812 68.5036 7.21678 68.6386 7.60496C68.7736 7.99314 68.749 8.41906 68.57 8.78904C68.29 9.54905 67.98 10.289 67.64 11.029C67.7855 11.3204 67.8545 11.644 67.8405 11.9694C67.8266 12.2948 67.73 12.6112 67.56 12.889C67.35 13.199 67.13 13.499 66.92 13.799C66.79 14.419 66.64 15.019 66.46 15.619C67.8902 13.3237 68.8015 10.7435 69.13 8.05904V8.09904ZM62 5.55904C61.5416 5.97386 61.1106 6.41813 60.71 6.88904C61.3 7.02904 61.89 7.18904 62.48 7.37904C62.3 6.74904 62.14 6.17904 62 5.55904ZM61.8 11.559C62.16 11.199 62.53 10.839 62.93 10.499C62.26 10.299 61.59 10.099 60.93 9.93904L61.8 11.559ZM59.45 18.559C60.0757 17.1164 60.7835 15.7107 61.57 14.349C61.4452 14.4087 61.3084 14.4395 61.17 14.439C58.1 14.409 58.31 16.339 59.42 18.569L59.45 18.559ZM56.25 14.689C54.8511 17.5027 53.6483 20.4096 52.65 23.389C55.65 23.389 54.95 23.909 54.8 21.679C54.7779 21.4875 54.801 21.2934 54.8677 21.1125C54.9344 20.9316 55.0426 20.7689 55.1837 20.6375C55.3248 20.5061 55.4949 20.4097 55.6801 20.3561C55.8653 20.3026 56.0606 20.2933 56.25 20.329L58.09 20.679C57.3299 18.7286 56.7083 16.727 56.23 14.689H56.25ZM59.25 24.579C59.074 24.3598 58.96 24.0974 58.92 23.819L58 23.689C58.1361 24.1526 58.1361 24.6455 58 25.109C57.9504 25.3744 57.8148 25.6162 57.6142 25.7969C57.4136 25.9776 57.1591 26.0873 56.89 26.109C56.1157 26.1106 55.3523 26.2921 54.66 26.639C54.7031 26.702 54.7399 26.769 54.77 26.839L55.18 28.029L55.51 28.139C56.77 27.009 58 25.799 59.19 24.579H59.25ZM109.25 44.409C111.262 43.555 113.207 42.5522 115.07 41.409C113.74 40.899 112.39 40.489 111.02 40.109C111.02 40.829 110.76 41.519 109.9 41.329L108.82 41.129C109.028 41.2788 109.193 41.4816 109.297 41.7164C109.401 41.9511 109.44 42.2094 109.41 42.4643C109.38 42.7193 109.283 42.9617 109.129 43.1665C108.974 43.3712 108.767 43.5309 108.53 43.629C108.849 43.791 109.093 44.0707 109.21 44.409H109.25ZM95 44.319C95.33 44.319 95.66 44.319 96 44.319C95.77 44.059 95.53 43.809 95.31 43.529C95.1811 43.3667 95.0797 43.1843 95.01 42.989C94.1759 44.2741 93.7666 45.7888 93.84 47.319C93.9271 47.539 93.9745 47.7726 93.98 48.009C93.98 48.059 93.98 48.109 93.98 48.169C93.98 48.229 93.98 48.379 94.03 48.489C94.0408 48.6231 94.0307 48.7581 94 48.889C95.49 48.599 97 48.259 98.54 47.889C97.33 47.489 96.11 47.089 94.92 46.619C94 46.249 93.72 44.319 95 44.319ZM96.23 41.319C97.62 40.729 98.98 40.089 100.34 39.439C100.174 39.2691 100.047 39.0643 99.9692 38.8395C99.8914 38.6147 99.8643 38.3755 99.89 38.139C98.5373 39.0323 97.2982 40.0867 96.2 41.279L96.23 41.319ZM100.88 42.779C100.72 42.69 100.582 42.5652 100.478 42.4143C100.374 42.2634 100.306 42.0905 100.28 41.909C99.3334 42.369 98.38 42.8124 97.42 43.239C97.75 43.579 98.08 43.909 98.42 44.239C99.98 44.149 101.54 44.019 103.1 43.899L100.88 42.779ZM101.04 46.459L101.27 46.639C101.416 46.767 101.529 46.9282 101.6 47.109C102.54 46.839 103.47 46.559 104.41 46.249L101.04 46.459ZM113.65 33.129C111.01 32.799 108.2 33.949 105.84 34.919C104.371 35.5303 102.947 36.2454 101.58 37.059C102.52 37.259 103.46 37.439 104.4 37.609L104.69 37.489C104.63 36.719 105 35.899 105.8 36.119C108.06 36.759 110.38 37.269 112.67 37.889C112.11 37.399 111.55 36.889 110.96 36.459C110.15 35.819 110.49 33.459 111.79 33.739C112.05 33.799 112.29 33.889 112.54 33.969C112.755 33.6681 113.049 33.4328 113.39 33.289C114.07 32.959 114.63 33.529 114.82 34.189C115.47 34.6958 116.182 35.116 116.94 35.439C117.139 35.6063 117.302 35.8136 117.416 36.0475C117.53 36.2814 117.594 36.5367 117.604 36.7968C117.613 37.057 117.568 37.3162 117.471 37.5577C117.374 37.7993 117.227 38.0178 117.04 38.199L118.21 39.259C121.81 36.219 116.18 33.419 113.61 33.099L113.65 33.129Z" fill="#034543"/>
</g>
</svg>
