<svg width="1484" height="901" viewBox="0 0 1484 901" fill="none" xmlns="http://www.w3.org/2000/svg">
<path opacity="0.2" d="M1483.95 630.172C1487.29 393.596 1316.82 233.984 1112.07 145.214C825.437 -129.843 397.988 15.7751 236.284 341.996C159.253 389.424 97.1058 459.328 57.449 543.15C39.6004 580.559 25.5941 619.844 15.6651 660.345C4.09911 697.283 -1.13482 736.07 0.205084 774.916C-5.64466 1000.12 136.421 1192.09 334.476 1295.73C443.95 1456.22 612.339 1540.18 832.958 1454.91C916.383 1422.07 988.943 1364.66 1041.88 1289.61C1285.06 1161.05 1479.77 899.981 1483.95 630.172ZM957.057 968.199C909.227 1035.28 841.949 1084.37 765.268 1108.13C711.591 1092.61 662.47 1063.3 622.367 1022.86C693.053 1001.49 758.501 964.405 814.242 914.144C869.983 863.883 914.706 801.626 945.357 731.624C978.915 758.699 1005.6 793.987 1023.08 834.387C1007.46 882.138 985.213 927.224 957.057 968.199ZM839.226 657.284C810.848 726.523 768.016 788.233 713.874 837.886C685.673 859.54 653.378 874.644 619.15 882.185C584.923 889.726 549.551 889.532 515.401 881.615C469.176 805.613 434.895 722.345 413.866 634.982C451.865 588.86 501.326 554.653 556.767 536.154C656.544 560.328 751.929 601.233 839.226 657.284ZM908.587 529.157C921.301 538.696 933.313 549.221 944.521 560.642C920.287 540.527 889.784 533.093 873.907 554.52C841.136 532.485 807.241 512.34 772.372 494.174C805.077 492.307 837.869 495.4 869.728 503.357C883.099 511.665 896.47 519.974 908.587 529.157ZM484.898 1029.86C465.352 1038.28 446.367 1048.07 428.072 1059.16C402.645 1033.02 380.465 1003.64 362.054 971.697C397.411 1002.04 439.78 1022.1 484.898 1029.86ZM501.612 1123C514.147 1116.88 532.114 1109.01 554.678 1099.82C569.72 1115.57 584.344 1129.56 599.386 1143.55L548.828 1149.68C532.554 1141.86 516.782 1132.95 501.612 1123ZM1181.85 710.196C1174.11 668.461 1160 628.3 1140.07 591.253C1160.52 605.382 1179.43 621.805 1196.48 640.229C1193.46 663.971 1188.99 687.487 1183.11 710.633L1181.85 710.196ZM160.237 701.013C159.292 803.429 177.019 905.093 212.467 1000.56C219.571 1034.25 228.358 1067.53 238.791 1100.26C187.475 1050.65 152.302 985.459 138.212 913.848C124.122 842.237 131.825 767.806 160.237 701.013ZM1037.7 424.207C1000.13 373.809 952.131 332.991 897.306 304.826C811.214 259.941 718.578 230.383 623.203 217.367C758.893 181.734 901.675 189.503 1033.1 239.669C1049.82 245.354 1064.02 251.913 1079.48 258.473C1143.91 324.85 1184.99 412.077 1196.06 505.98C1146.71 471.519 1093.53 443.472 1037.7 422.458V424.207ZM1349.41 695.328C1336.01 655.368 1315.29 618.529 1288.4 586.88C1288.62 510.081 1275.89 433.843 1250.8 361.674C1295.49 401.713 1328.46 454.157 1345.91 512.958C1363.36 571.76 1364.57 634.525 1349.41 694.016V695.328Z" fill="#333333"/>
</svg>
