<svg width="174" height="176" viewBox="0 0 174 176" fill="none" xmlns="http://www.w3.org/2000/svg">
<path d="M17.7048 69.5183C15.6157 55.1349 20.1708 38.8865 37.9607 31.4644C60.6238 21.9456 83.7934 35.2283 98.9014 48.3266C98.8177 35.468 100.931 20.6649 111.058 10.8893C126.657 -4.08119 151.66 -1.62825 164.146 11.4098C178.817 26.7439 172.622 54.3353 168.648 73.1682C161.833 104.962 157.197 137.199 154.775 169.652C154.493 173.512 146.488 176.363 143.559 173.589C103.863 136.373 26.0398 126.973 17.7048 69.5183ZM39.114 91.1821C49.5817 109.337 74.5572 120.159 94.5885 129.989C111.816 138.451 128.683 146.926 143.195 158.009C144.82 137.263 147.934 116.67 152.514 96.3891C156.725 78.9617 162.082 61.7356 163.722 44.1215C165.326 24.5961 148.421 -8.69801 116.927 12.5088C104.468 20.9034 101.895 37.7508 102.025 50.9924C104.037 52.8544 105.818 54.6934 107.557 56.3743C112.26 61.2724 101.056 67.2404 96.9433 62.9753C86.1197 51.7515 48.4139 21.545 33.2149 48.0464C25.3963 61.5252 32.5438 79.8356 39.1069 91.1558L39.114 91.1821Z" fill="#005E26"/>
<path d="M1.0528 121.576C0.000267029 114.221 2.40414 105.897 11.6644 102.059C23.4614 97.1367 35.4695 103.88 43.2894 110.547C43.2753 103.968 44.4069 96.3893 49.6913 91.3644C57.8306 83.6689 70.8157 84.8668 77.2736 91.5093C84.861 99.3215 81.5795 113.453 79.4713 123.098C75.8576 139.381 73.3755 155.886 72.0426 172.496C71.8872 174.472 67.7215 175.949 66.2062 174.536C45.6662 155.586 5.25214 150.954 1.0528 121.576ZM12.1271 132.611C17.5243 141.877 30.4764 147.356 40.8617 152.34C49.7935 156.631 58.5377 160.928 66.0524 166.566C66.9443 155.947 68.6096 145.403 71.0353 135.016C73.2632 126.09 76.0863 117.264 76.9785 108.247C77.8565 98.2534 69.149 81.2569 52.737 92.1795C46.2445 96.5032 44.8688 105.129 44.9062 111.904C45.9472 112.852 46.8686 113.789 47.7684 114.645C50.2004 117.14 44.3655 120.22 42.2385 118.047C36.6404 112.329 17.1183 96.9597 9.16064 110.554C5.06748 117.468 8.73927 126.821 12.1235 132.598L12.1271 132.611Z" fill="#009E3F"/>
</svg>
