<svg width="183" height="156" viewBox="0 0 183 156" fill="none" xmlns="http://www.w3.org/2000/svg">
<path d="M127.915 70.5512C115.965 63.2677 101.09 56.3445 93.4583 44.1121C93.5122 44.0537 93.5615 43.9913 93.6059 43.9254C101.69 31.3126 108.249 17.795 113.148 3.65319C113.244 3.29972 113.236 2.92633 113.126 2.577C113.016 2.22766 112.807 1.91695 112.526 1.68145C112.244 1.44595 111.9 1.29548 111.535 1.24777C111.17 1.20006 110.799 1.25709 110.465 1.41214C94.3972 7.74844 81.8163 19.2472 68.5916 29.9188C58.5725 21.5416 48.5936 12.9242 40.2376 2.82614C39.6072 2.01243 37.8636 2.11914 38.0379 3.4531C39.8889 17.3396 47.2255 29.6387 50.2701 43.2584C50.3147 43.4784 50.4108 43.6849 50.5506 43.861C50.6904 44.0372 50.8701 44.178 51.0749 44.2722C43.6444 45.3394 36.3211 49.4479 29.749 52.8495C23.0917 56.0908 16.9097 60.2196 11.3739 65.1219C11.2491 65.2962 11.1641 65.4954 11.1249 65.7057C11.0857 65.9161 11.0932 66.1324 11.1468 66.3395C11.2005 66.5466 11.299 66.7396 11.4356 66.9049C11.5721 67.0702 11.7433 67.2038 11.9372 67.2963C25.1351 72.2586 42.558 76.634 56.6947 74.3796C56.8548 74.3606 57.0072 74.3008 57.1373 74.2062C62.6364 87.8392 74.6943 97.4838 80.1666 111.117C80.3582 111.505 80.6716 111.82 81.0594 112.015C81.4473 112.209 81.8883 112.273 82.3158 112.196C82.7434 112.119 83.134 111.906 83.4287 111.588C83.7234 111.271 83.906 110.866 83.9489 110.436C83.8282 96.7501 81.709 83.0904 83.7477 69.4707C98.0588 71.5516 112.343 73.846 126.855 73.2991C128.25 73.2458 129.417 71.4849 127.915 70.5512ZM82.098 65.8423C81.6086 65.7719 81.1108 65.8921 80.7084 66.1779C80.3061 66.4638 80.0303 66.8931 79.9386 67.3763C77.8999 78.9284 79.1338 90.5205 79.7105 102.166C73.6213 92.388 65.1178 84.1442 60.7587 73.3391C60.5963 73.034 60.3641 72.7711 60.0807 72.5717C59.7973 72.3724 59.4707 72.2421 59.1273 72.1915C58.7839 72.1408 58.4334 72.1712 58.104 72.2802C57.7746 72.3892 57.4756 72.5737 57.2312 72.8189C57.122 72.5327 56.9417 72.2786 56.7072 72.0804C56.4727 71.8821 56.1916 71.7461 55.89 71.685C41.7934 70.8313 28.1664 70.2177 14.5527 65.7222C25.2827 56.2111 39.2451 51.0487 52.1076 45.0326C52.4027 44.8992 52.6978 44.0721 52.1076 44.1255C52.2146 43.9973 52.2908 43.8466 52.3303 43.6848C52.3698 43.523 52.3716 43.3543 52.3357 43.1917C50.7932 30.9059 44.1406 20.0609 41.6057 8.02857C49.452 17.1528 58.492 25.1966 67.5454 33.1203C67.9042 33.4508 68.3658 33.6494 68.8536 33.6834C69.3414 33.7173 69.8263 33.5846 70.2279 33.3071C82.326 23.6492 93.8875 12.8708 108.051 6.24107C103.259 18.9255 97.1647 31.0844 89.8638 42.5247C89.0322 43.8587 90.6417 44.8725 92.05 44.7658C97.5357 56.0244 110.425 63.3344 121.169 70.111C108.078 69.9109 95.0947 67.7232 82.098 65.8423Z" fill="#007931"/>
<path d="M182.691 45.1537C178.802 39.1909 163.391 32.7212 165.04 24.8909C165.899 20.889 170.258 16.8871 172.632 13.6189C175.191 10.4719 176.792 6.66264 177.246 2.64046C177.234 2.2871 177.124 1.94394 176.928 1.64876C176.732 1.35357 176.458 1.11783 176.137 0.967482C175.815 0.817136 175.458 0.758026 175.104 0.79666C174.751 0.835294 174.415 0.970174 174.134 1.18644C166.918 7.12255 160.721 14.406 153.009 19.7418C152.853 19.848 152.724 19.9898 152.634 20.1553C146.357 14.7395 140.428 9.19019 131.938 7.45604C130.597 7.16257 128.947 8.49653 129.511 9.92387C131.982 16.4496 134.987 22.7626 138.497 28.7994C131.053 32.3344 121.879 30.6936 113.885 31.7741C111.618 32.0809 111.203 35.1223 113.724 35.3624C121.02 36.0694 128.558 35.936 135.586 38.2304C144.761 41.2185 141.662 56.2522 145.579 63.4289C145.809 63.7982 146.139 64.0954 146.531 64.2863C146.924 64.4772 147.362 64.5541 147.797 64.5081C148.231 64.4621 148.644 64.2951 148.987 64.0264C149.33 63.7576 149.59 63.3979 149.737 62.9887C151.681 56.1322 154.055 49.4357 156.644 42.7926C164.866 45.0736 172.605 47.9817 181.336 47.6882C181.647 47.7279 181.963 47.6724 182.241 47.5292C182.52 47.386 182.748 47.1619 182.895 46.8867C183.042 46.6114 183.101 46.2982 183.065 45.9886C183.028 45.679 182.898 45.3878 182.691 45.1537ZM153.318 39.8179C151.225 45.0603 149.294 50.3561 147.55 55.7186C146.209 48.6887 146.813 41.0451 140.375 36.3362C138.691 35.1681 136.817 34.2972 134.835 33.7617C137.567 33.2319 140.189 32.244 142.588 30.8403C143.232 30.4535 143.822 29.5064 143.352 28.706C140.129 23.4852 137.369 17.9953 135.104 12.2983C141.81 15.0596 146.933 20.7022 152.54 25.2644C154.351 26.7451 157.449 24.1839 155.343 22.4497L155.035 22.1963C161.191 18.1944 166.408 12.8586 171.854 7.88291C168.045 14.5527 160.319 19.8885 161.258 27.5988C162.13 34.6955 171.988 39.1109 177.353 44.34C170.043 43.7263 163.297 40.845 156.215 38.8441C155.263 38.5106 153.747 38.684 153.318 39.7512V39.8179Z" fill="#688F8E"/>
<path d="M84.0959 121.911C72.8428 118.87 61.2946 117.909 49.8136 116.642C49.2502 109.012 49.0088 101.368 48.3516 93.7514C48.1906 91.9505 45.3204 91.8838 44.5424 93.2178C41.1144 99.4235 38.1165 105.855 35.5695 112.467C31.8676 111.373 24.3432 108.465 23.2702 108.145C16.6526 106.114 9.87247 104.65 3.00397 103.769C1.66272 103.623 -1.01978 105.263 0.428773 106.851C6.39378 113.232 13.1027 118.884 20.4134 123.685C15.0484 131.582 9.50903 139.119 2.22605 145.402C0.147111 147.19 2.93691 149.311 4.90855 148.284C14.7265 143.134 26.1405 142.801 34.8318 135.784C42.6009 144.868 48.4 155.449 51.8657 166.866C52.5899 169.36 56.8417 167.839 56.265 165.358C54.803 159.209 45.146 136.318 52.6168 132.716C62.4347 127.994 74.4657 129.915 84.4178 125.38C84.7848 125.235 85.095 124.977 85.3017 124.642C85.5084 124.308 85.6006 123.916 85.5643 123.525C85.528 123.135 85.3653 122.766 85.1005 122.475C84.8358 122.184 84.4833 121.986 84.0959 121.911ZM47.1445 132.049C45.0387 135.157 45.3606 139.466 46.0312 143.295C43.3935 139.199 40.4382 135.314 37.1924 131.676C36.9731 131.425 36.7049 131.222 36.4042 131.078C36.1035 130.933 35.7765 130.851 35.443 130.836C35.1095 130.821 34.7763 130.874 34.4638 130.991C34.1513 131.107 33.8658 131.286 33.6247 131.516C27.6829 137.372 19.7159 139.079 11.9903 141.44C16.8497 135.932 21.2924 130.073 25.2821 123.912C25.5386 123.557 25.6494 123.118 25.5921 122.684C25.5348 122.251 25.3137 121.855 24.9736 121.578C19.0309 117.788 13.4662 113.442 8.35555 108.598C15.6539 109.956 22.8304 111.897 29.8155 114.401C32.2834 115.268 38.0374 118.27 40.0493 114.988C40.5858 114.121 39.8481 113.014 38.9494 112.667C40.8138 108.532 42.6245 104.396 44.757 100.408C45.0387 106.384 45.1997 112.413 45.6423 118.323C45.6971 118.739 45.891 119.124 46.1926 119.417C46.4943 119.709 46.8863 119.893 47.3054 119.937C57.0563 121.071 66.9279 121.778 76.5044 123.939C71.4077 125.113 65.9354 125.513 60.9727 126.42C56.6137 127.26 49.8672 128.034 47.1445 132.049Z" fill="#80CF9F"/>
</svg>
